<svg width="110" height="14" viewBox="0 0 110 14" fill="none" xmlns="http://www.w3.org/2000/svg">
<path d="M50.1722 0.0591863H56.2147L56.2268 0.246502C55.9408 0.256573 55.6528 0.272689 55.3647 0.274703C54.7021 0.274703 54.7001 0.274703 54.7001 0.929305V6.30308C54.8333 6.32678 54.9678 6.34291 55.1029 6.35142C56.5471 6.35142 57.9892 6.35143 59.4313 6.3615C59.7919 6.3615 59.8926 6.23662 59.8886 5.89623C59.8778 4.18419 59.8778 2.47282 59.8886 0.762126C59.8886 0.387493 59.7556 0.248517 59.387 0.272687C59.0184 0.296857 58.674 0.272687 58.2047 0.272687C58.5753 -0.0495788 63.9854 -0.0797912 64.3842 0.272687C64.0538 0.272687 63.7215 0.294843 63.3912 0.272687C62.9883 0.238446 62.8312 0.369366 62.8333 0.800396C62.8453 4.8596 62.8453 8.91948 62.8333 12.98C62.8333 13.3829 62.9662 13.5218 63.359 13.4896C63.6953 13.4614 64.0357 13.4896 64.4929 13.4896C64.1143 13.8119 58.7002 13.8401 58.3094 13.4896C58.6418 13.4896 58.9741 13.4675 59.3024 13.4896C59.7294 13.5259 59.8966 13.3869 59.8906 12.9317C59.8704 11.0021 59.8745 9.07256 59.8906 7.14299C59.8906 6.75627 59.7778 6.60923 59.3729 6.61528C57.9818 6.63542 56.5894 6.63542 55.1956 6.61528C54.7927 6.61528 54.692 6.76634 54.694 7.145C54.7101 9.09269 54.7142 11.0384 54.694 12.9861C54.694 13.399 54.8411 13.5178 55.2197 13.4896C55.5561 13.4675 55.8925 13.4896 56.2268 13.4896V13.691H50.1843L50.1702 13.5319C50.4381 13.5198 50.706 13.5017 50.9759 13.4997C51.7433 13.4997 51.7453 13.4997 51.7453 12.7323C51.7453 8.80602 51.7453 4.88042 51.7453 0.95549C51.7453 0.294846 51.7453 0.294844 51.0766 0.29283H50.1602L50.1722 0.0591863Z" fill="#AEAEAE"/>
<path d="M0.515808 0.0458747C0.668884 0.0337897 0.82196 0.0116374 0.975037 0.0116374C2.93884 0.0116374 4.90265 -0.0145467 6.86444 0.0116374C7.98029 0.031779 9.05988 0.265418 10.0065 0.913977C11.6743 2.06205 11.6743 4.38438 9.96222 5.45188C9.40833 5.79832 8.73761 5.96146 8.11322 6.18906C7.84853 6.263 7.57944 6.32019 7.30756 6.36027C8.00446 6.47105 8.56842 6.51335 9.1062 6.65837C10.4517 7.0189 11.5574 7.71379 11.926 9.16398C12.3651 10.9203 11.5756 12.439 9.77491 13.1299C8.88484 13.4697 7.94687 13.6675 6.99536 13.716C4.9812 13.8026 2.96704 13.7422 0.952881 13.7402C0.803833 13.7402 0.656799 13.7099 0.509766 13.6958V13.4743C0.789734 13.4743 1.07172 13.4582 1.35168 13.4743C1.69409 13.4985 1.82098 13.3816 1.82098 13.0211C1.8089 8.90953 1.8089 4.79862 1.82098 0.688392C1.82098 0.350013 1.69409 0.243264 1.37787 0.261391C1.06165 0.279519 0.803833 0.261391 0.517822 0.261391L0.515808 0.0458747ZM4.79187 10.0019V12.2658C4.79187 13.5649 4.79187 13.5649 6.11115 13.4743C7.64594 13.3716 8.59058 12.4954 8.7497 10.9606C8.80603 10.3792 8.80603 9.79372 8.7497 9.21232C8.60468 7.64128 7.58753 6.69865 6.01447 6.62211C5.7627 6.61002 5.51093 6.63218 5.26117 6.62211C4.91272 6.59794 4.78583 6.73692 4.79187 7.08738C4.80396 8.06022 4.79389 9.02904 4.79187 10.0019ZM4.79187 3.32694V5.2404C4.79187 6.35826 4.79187 6.35826 5.89362 6.35423C7.08399 6.35423 8.0105 5.71775 8.23206 4.55357C8.35997 3.78136 8.35997 2.99338 8.23206 2.22117C8.05078 0.994548 7.35791 0.408428 6.13733 0.289593C5.85535 0.25938 5.56732 0.289589 5.28333 0.273476C4.91876 0.245278 4.77374 0.378213 4.7818 0.758889C4.80597 1.61491 4.79187 2.47093 4.79187 3.32694Z" fill="#AEAEAE"/>
<path d="M103.122 13.6873H98.0205V13.4859C98.3186 13.4859 98.6248 13.4698 98.9148 13.4859C99.2653 13.508 99.3841 13.3671 99.3821 13.0186C99.3727 10.654 99.3727 8.28869 99.3821 5.92272C99.3821 5.51989 99.2189 5.42723 98.8725 5.44738C98.5986 5.46349 98.3246 5.44738 98.0507 5.44738V5.27013L101.984 4.98412V6.75658C102.076 6.681 102.162 6.59815 102.24 6.50884C103.141 5.16741 105.028 4.56115 106.512 5.17144C107.56 5.60045 107.878 6.51488 107.9 7.53606C107.938 9.31255 107.934 11.0911 107.9 12.8696C107.9 13.357 108.039 13.5403 108.524 13.4899C108.756 13.4844 108.988 13.4999 109.217 13.5362C109.217 13.5866 109.217 13.637 109.201 13.6873H104.24C104.24 13.639 104.24 13.5886 104.226 13.5403C104.452 13.5395 104.678 13.5159 104.899 13.4698C105.054 13.4234 105.302 13.2684 105.302 13.1717C105.302 11.0105 105.316 8.84526 105.227 6.68608C105.185 5.69512 104.397 5.31042 103.495 5.74547C103.052 5.94084 102.674 6.25932 102.406 6.66311C102.138 7.0669 101.992 7.53904 101.984 8.02349C101.92 9.69927 101.984 11.3771 101.958 13.0589C101.958 13.4255 102.105 13.5262 102.438 13.506C102.668 13.5061 102.898 13.5202 103.126 13.5483L103.122 13.6873Z" fill="#AEAEAE"/>
<path d="M97.8552 12.1591C98.0184 12.7835 97.68 13.4099 97.0496 13.7321C95.9619 14.288 94.9045 13.9758 93.982 12.8177C92.8722 14.0484 91.4885 14.1974 89.996 13.7563C88.9647 13.4522 88.435 12.7492 88.3847 11.7522C88.3303 10.6968 88.7371 9.89515 89.7644 9.53663C90.6707 9.22645 91.6516 9.1338 92.6023 8.96864C93.0293 8.89412 93.4664 8.88807 94.0404 8.83772C93.986 7.90717 93.9921 6.99074 93.839 6.09846C93.7886 5.80439 93.3878 5.46199 93.0716 5.34114C92.3445 5.06318 91.5831 5.20417 90.856 5.45795C90.6975 5.53638 90.5735 5.67048 90.5076 5.83461C90.4834 5.88899 90.6586 6.06825 90.7755 6.14277C91.4784 6.5879 91.6436 7.01087 91.3314 7.62318C91.0635 8.1529 90.3686 8.36037 89.7563 8.0945C89.6134 8.03186 89.4847 7.94074 89.3782 7.82672C89.2717 7.7127 89.1895 7.57816 89.1367 7.43131C89.084 7.28447 89.0617 7.12841 89.0712 6.97266C89.0808 6.81692 89.122 6.66475 89.1923 6.52546C89.4226 6.08454 89.776 5.71999 90.2095 5.47609C91.8812 4.67042 93.5933 4.75703 95.2449 5.53248C96.1432 5.95143 96.4937 6.7591 96.4997 7.71784C96.4997 9.22846 96.4997 10.7391 96.4997 12.2497C96.4997 12.6203 96.4191 13.1118 96.9348 13.1883C97.4504 13.2648 97.5773 12.8197 97.676 12.4108C97.7243 12.3193 97.7846 12.2347 97.8552 12.1591ZM94.0545 9.10359C93.2489 9.21235 92.5842 9.27479 91.9336 9.39967C91.7044 9.427 91.4922 9.53465 91.3348 9.70352C91.1773 9.87239 91.0848 10.0916 91.0736 10.3222C91.0149 11.0664 91.0393 11.8149 91.1461 12.5538C91.2871 13.3152 92.0545 13.6435 92.8017 13.4018C93.0716 13.3262 93.3136 13.1739 93.4985 12.9632C93.6834 12.7526 93.8031 12.4928 93.843 12.2155C93.978 11.2185 93.9881 10.2053 94.0545 9.10359Z" fill="#AEAEAE"/>
<path d="M45.8004 8.84804C45.8004 8.04238 45.8407 7.27901 45.7883 6.52974C45.7359 5.78048 45.3714 5.3434 44.5939 5.29104C43.9594 5.24874 43.3089 5.3857 42.6724 5.48037C42.5963 5.50308 42.5272 5.54447 42.4713 5.60076C42.4153 5.65705 42.3744 5.72645 42.3521 5.80263C42.338 5.90938 42.4951 6.07857 42.616 6.15712C43.2565 6.55995 43.4458 7.03731 43.1699 7.61135C42.9181 8.13704 42.2857 8.35054 41.6552 8.12093C41.3781 8.01779 41.1507 7.81288 41.0193 7.54794C40.888 7.28299 40.8626 6.97793 40.9483 6.69491C41.0225 6.41726 41.1609 6.16092 41.3522 5.94648C41.5436 5.73204 41.7826 5.56549 42.05 5.46022C43.7379 4.69082 45.4419 4.77944 47.0975 5.55086C47.4645 5.7109 47.7755 5.97667 47.9907 6.31426C48.206 6.65185 48.3157 7.04593 48.306 7.44619C48.3322 8.9548 48.3322 10.4674 48.3483 11.974C48.332 12.2243 48.3496 12.4757 48.4007 12.7213C48.455 12.9026 48.6162 13.1684 48.7531 13.1825C48.863 13.1804 48.9712 13.1547 49.0702 13.1071C49.1693 13.0595 49.2569 12.9911 49.3272 12.9066C49.4883 12.7052 49.5427 12.4171 49.6595 12.1271C49.8911 12.6568 49.5689 13.3235 48.9606 13.68C47.8951 14.3084 46.7269 13.9922 45.8105 12.8119C44.7047 14.0587 43.3169 14.1916 41.8244 13.7566C40.8073 13.4605 40.2312 12.7112 40.1869 11.7625C40.1386 10.697 40.6179 9.83498 41.6653 9.50265C42.5636 9.21865 43.5244 9.12801 44.461 8.97494C44.8799 8.90444 45.317 8.89236 45.8004 8.84804ZM45.8648 9.11996C45.1176 9.20455 44.4972 9.24886 43.8889 9.35158C43.6008 9.38491 43.3351 9.52374 43.1432 9.74131C42.9513 9.95887 42.8467 10.2398 42.8496 10.5299C42.8089 11.0662 42.8089 11.6049 42.8496 12.1412C42.9564 13.2812 44.0158 13.8834 44.89 13.2611C45.2818 12.9813 45.5605 12.5705 45.6755 12.1029C45.8386 11.1482 45.8125 10.1734 45.8648 9.11996V9.11996Z" fill="#AEAEAE"/>
<path d="M74.0428 12.0869C74.2442 12.7435 73.8736 13.4203 73.223 13.7405C72.1112 14.2884 70.9893 13.9419 70.1897 12.7798C69.7161 13.3929 69.0213 13.7963 68.2541 13.9037C67.408 14.0681 66.5314 13.9529 65.7565 13.5754C65.3879 13.404 65.078 13.1279 64.8652 12.7816C64.6524 12.4352 64.5463 12.0339 64.5601 11.6277C64.5404 11.2218 64.638 10.8189 64.8412 10.467C65.0444 10.1152 65.3447 9.82936 65.7062 9.64371C66.679 9.10995 67.7566 9.06564 68.8221 8.96494C69.2531 8.92465 69.6862 8.89041 70.1333 8.85214C70.1333 7.97598 70.1816 7.12399 70.1172 6.28006C70.1082 6.0124 69.9941 5.75906 69.7995 5.57504C69.6049 5.39102 69.3456 5.29117 69.0779 5.29715C68.3998 5.3065 67.7233 5.36506 67.0536 5.47238C66.9288 5.48849 66.7757 5.6738 66.7314 5.80472C66.7072 5.88327 66.8542 6.0585 66.963 6.13101C67.6619 6.59427 67.8553 7.12802 67.5068 7.70206C67.1967 8.20761 66.4252 8.36472 65.8472 8.04044C65.3174 7.74033 65.1221 6.94674 65.4625 6.35055C65.9257 5.54489 66.7294 5.23068 67.5814 5.05545C68.6415 4.85042 69.7361 4.91342 70.7657 5.23874C72.0931 5.6315 72.6993 6.44723 72.7094 7.81686C72.7195 9.18649 72.7094 10.6024 72.7094 11.9962C72.6936 12.2469 72.714 12.4986 72.7698 12.7435C72.8282 12.9228 72.9934 13.1604 73.1465 13.1886C73.2491 13.1895 73.3505 13.1669 73.443 13.1226C73.5355 13.0782 73.6167 13.0133 73.6802 12.9328C73.8414 12.7193 73.9038 12.4333 74.0428 12.0869ZM70.2421 9.1442C69.7365 9.18247 69.3719 9.20462 69.0054 9.24087C68.7722 9.26109 68.5403 9.29336 68.3105 9.33756C67.6337 9.47452 67.251 9.90152 67.2208 10.5863C67.1946 11.07 67.1946 11.5548 67.2208 12.0385C67.2692 12.7959 67.6075 13.247 68.1876 13.4102C69.0175 13.6418 69.8654 13.1725 70.0447 12.1896C70.2239 11.2067 70.1837 10.2057 70.2421 9.1442Z" fill="#AEAEAE"/>
<path d="M74.2324 13.4816C74.5507 13.4816 74.8709 13.4816 75.1891 13.4816C75.4449 13.4816 75.5477 13.383 75.5457 13.1251C75.5376 10.6262 75.5329 8.12666 75.5316 5.62642C75.5191 5.57872 75.5008 5.53272 75.4772 5.48946L74.2546 5.40083V5.26588L78.1278 4.99397V6.63752C78.5045 6.18434 78.7582 5.78352 79.1007 5.48542C79.3994 5.19972 79.7685 4.99817 80.1703 4.90124C80.5722 4.80431 80.9926 4.81546 81.3887 4.93355C81.9769 5.10676 82.2407 5.56801 82.3032 6.14204C82.3463 6.40171 82.3089 6.66836 82.1958 6.90606C82.0827 7.14376 81.8994 7.34107 81.6707 7.47139C81.1652 7.76747 80.6234 7.83595 80.0997 7.49757C79.576 7.1592 79.4269 6.41798 79.7311 5.78554C79.8239 5.63809 79.8785 5.4699 79.8902 5.29609C79.6087 5.45822 79.3395 5.64065 79.0845 5.84193C78.8206 6.0788 78.608 6.36719 78.4597 6.68934C78.3115 7.01149 78.2307 7.36057 78.2225 7.7151C78.1782 9.60841 78.2064 11.5017 78.2064 13.4957H80.0936C79.719 13.7938 74.7521 13.8442 74.2344 13.6528L74.2324 13.4816Z" fill="#AEAEAE"/>
<path d="M20.7107 9.02715H15.2946C15.3631 10.0947 15.343 11.1219 15.5142 12.1149C15.7156 13.2307 16.6764 13.7725 17.8365 13.559C19.2162 13.3052 19.9453 12.3505 20.4026 11.1259C20.463 10.9607 20.5476 10.8036 20.6201 10.6425L20.7832 10.6949C20.7409 10.858 20.7107 11.0232 20.6584 11.1823C19.9957 13.1965 18.4931 14.129 16.2091 13.9538C14.4487 13.8168 12.8414 12.2599 12.5836 10.433C12.2714 8.29601 13.0952 6.4591 14.7992 5.4923C17.3753 4.03203 20.6886 5.95354 20.7107 9.02715ZM16.6441 8.74517C16.9617 8.76031 17.2798 8.75628 17.5968 8.73308C17.7116 8.71697 17.8969 8.54778 17.8969 8.44909C17.9111 7.71357 17.8829 6.97785 17.8123 6.24559C17.7338 5.57891 17.3209 5.25262 16.7046 5.22442C16.4164 5.19703 16.1286 5.27989 15.8991 5.45631C15.6696 5.63273 15.5155 5.88958 15.4679 6.1751C15.3874 6.6013 15.3503 7.03453 15.3571 7.46819C15.345 8.7492 15.3531 8.7492 16.6441 8.74517V8.74517Z" fill="#AEAEAE"/>
<path d="M26.4126 13.6845H20.6602V13.4831C20.9724 13.4831 21.2845 13.469 21.5967 13.4831C21.9089 13.4972 22.0419 13.3683 22.0399 13.044C22.0318 10.6606 22.0318 8.27918 22.0399 5.89978C22.0399 5.53522 21.8948 5.42847 21.5625 5.44458C21.2668 5.46947 20.9691 5.43594 20.6863 5.34589C21.9694 5.05182 23.335 5.42444 24.6281 4.75977V6.64905C24.8267 6.33975 25.0425 6.04186 25.2746 5.75678C25.9614 5.02564 26.7892 4.65503 27.8044 4.93097C28.0666 4.99919 28.3 5.14964 28.4703 5.36026C28.6407 5.57087 28.7391 5.83056 28.751 6.1012C28.7994 6.70545 28.6141 7.20093 28.0662 7.50104C27.8276 7.64537 27.5516 7.71571 27.273 7.70316C26.9945 7.69061 26.7259 7.59574 26.5012 7.43054C26.044 7.10828 25.897 6.35498 26.1749 5.78699C26.2454 5.64197 26.332 5.50501 26.4207 5.34589C25.5787 5.5191 24.8557 6.36506 24.7348 7.4386C24.6381 8.28455 24.6422 9.14258 24.6281 9.99457C24.6119 11.0016 24.6281 12.0087 24.6281 13.0158C24.6281 13.3643 24.7388 13.5032 25.0893 13.4811C25.4398 13.4589 25.76 13.471 26.0964 13.4811C26.213 13.4949 26.3282 13.5184 26.4408 13.5516L26.4126 13.6845Z" fill="#AEAEAE"/>
<path d="M39.7052 12.4495C39.4353 13.5029 38.2047 14.1354 36.9962 13.9521C35.9146 13.7889 35.2378 13.0115 35.2277 11.8574C35.2096 9.96204 35.2277 8.06873 35.2177 6.1734C35.2177 5.49463 35.3103 5.43219 34.5147 5.44629C34.3872 5.43721 34.2643 5.39485 34.1582 5.32343C36.5168 4.83197 37.3204 3.10785 37.6165 0.966797L37.7736 1.01715C37.7877 1.18231 37.8139 1.34747 37.8139 1.51465C37.8139 2.57007 37.834 3.62751 37.8139 4.68293C37.8038 5.08576 37.9589 5.21064 38.3356 5.19251C38.7505 5.17237 39.1674 5.19251 39.5844 5.19251V5.44226C39.1815 5.44226 38.7787 5.46442 38.3879 5.44226C37.9972 5.42011 37.8058 5.54498 37.8119 6.0022C37.8381 8.01636 37.824 10.0305 37.824 12.0447C37.824 12.095 37.824 12.1454 37.824 12.1957C37.8542 12.5986 37.8864 13.0377 38.3456 13.1907C38.8049 13.3438 39.1513 13.1202 39.4434 12.7698C39.5239 12.659 39.6166 12.5543 39.7052 12.4495Z" fill="#AEAEAE"/>
<path d="M29.2598 5.27033L33.1854 4.98633V5.95312C33.1854 8.26941 33.1974 10.5857 33.1854 12.902C33.1854 13.3773 33.3344 13.5324 33.7896 13.4901C34.0385 13.4845 34.2875 13.4959 34.5349 13.5244V13.6835H29.2275V13.4821C29.5438 13.4821 29.86 13.472 30.1742 13.4821C30.4884 13.4921 30.5952 13.3773 30.5952 13.0792C30.5952 10.681 30.5952 8.28082 30.5952 5.8786C30.5952 5.53418 30.4441 5.44354 30.14 5.45562C29.8358 5.46771 29.5558 5.45562 29.2638 5.45562L29.2598 5.27033Z" fill="#AEAEAE"/>
<path d="M88.0509 13.6859H82.7939V13.4845C83.071 13.4704 83.3487 13.4704 83.6258 13.4845C84.0286 13.5248 84.1454 13.3475 84.1434 12.9648C84.1314 10.6163 84.1314 8.26648 84.1434 5.91528C84.1434 5.52856 83.9984 5.41578 83.6399 5.43592C83.3676 5.44023 83.0953 5.42947 82.8242 5.40369V5.26471L86.7618 4.97266V8.25977C86.7618 9.78516 86.7618 11.3112 86.7618 12.838C86.7618 13.4825 86.7618 13.4785 87.4305 13.4865C87.644 13.4865 87.8575 13.5228 88.069 13.5409L88.0509 13.6859Z" fill="#AEAEAE"/>
<path d="M86.9663 1.63284C86.9717 1.83406 86.9367 2.0343 86.8634 2.22177C86.7901 2.40923 86.68 2.58011 86.5396 2.72431C86.3991 2.8685 86.2312 2.98309 86.0457 3.06131C85.8603 3.13953 85.661 3.17979 85.4597 3.17972C85.2533 3.18864 85.0471 3.15588 84.8536 3.0834C84.6601 3.01092 84.4831 2.90021 84.3333 2.75785C84.1835 2.6155 84.0639 2.44443 83.9817 2.25486C83.8994 2.06528 83.8562 1.86107 83.8545 1.65442C83.8529 1.44778 83.8929 1.24292 83.9722 1.05208C84.0515 0.861228 84.1684 0.688299 84.3159 0.543612C84.4635 0.398924 84.6387 0.285443 84.831 0.20993C85.0234 0.134417 85.229 0.0984219 85.4356 0.104096C85.6371 0.101669 85.8371 0.139538 86.0238 0.215481C86.2104 0.291423 86.3801 0.403906 86.5227 0.546322C86.6653 0.688739 86.778 0.858219 86.8542 1.0448C86.9304 1.23139 86.9685 1.43131 86.9663 1.63284V1.63284Z" fill="#AEAEAE"/>
<path d="M31.9135 0.105601C32.3211 0.110943 32.7099 0.277978 32.9943 0.569962C33.2787 0.861946 33.4355 1.25496 33.4302 1.66254C33.4248 2.07013 33.2578 2.4589 32.9658 2.74333C32.6738 3.02776 32.2808 3.18455 31.8732 3.17921C31.6714 3.17656 31.4721 3.13419 31.2867 3.05452C31.1012 2.97484 30.9333 2.85942 30.7925 2.71484C30.6516 2.57027 30.5406 2.39937 30.4659 2.21191C30.3911 2.02444 30.3539 1.82408 30.3566 1.62226C30.3592 1.42045 30.4016 1.22113 30.4813 1.03569C30.5609 0.850246 30.6764 0.682313 30.8209 0.541478C30.9655 0.400643 31.1364 0.289659 31.3239 0.214871C31.5113 0.140083 31.7117 0.102956 31.9135 0.105601V0.105601Z" fill="#AEAEAE"/>
</svg>
