<svg width="82" height="18" viewBox="0 0 82 18" fill="none" xmlns="http://www.w3.org/2000/svg">
<path d="M81.9609 17.5331C80.6923 17.5538 79.4341 17.5907 78.1701 17.5873C77.5255 17.5873 76.8819 17.51 76.1196 17.4604C76.6605 17.021 76.5579 16.5897 76.3664 16.1157C75.859 14.854 75.3681 13.5854 74.8937 12.3099C74.6827 11.7391 74.3678 11.4519 73.7059 11.4761C72.3427 11.5246 70.9772 11.5084 69.6141 11.4842C69.1366 11.475 68.8748 11.6468 68.7122 12.0931C68.2844 13.2625 67.8184 14.4181 67.386 15.5864C67.3082 15.8218 67.2692 16.0684 67.2706 16.3164C67.2522 17.0533 67.5209 17.3266 68.2463 17.3543C68.3916 17.3612 68.5358 17.3774 68.8472 17.4039C68.6303 17.5192 68.5623 17.5815 68.4931 17.5827C66.7482 17.5977 65.0045 17.6276 63.2607 17.6103C62.2482 17.6 61.2241 17.5861 60.2265 17.4373C59.1424 17.2747 58.3813 16.5032 57.7435 15.6809C56.7471 14.3939 55.723 13.1092 54.9007 11.7125C54.1511 10.4382 53.0924 10.2191 51.81 10.301C51.4456 10.324 51.2483 10.4786 51.2541 10.8776C51.2818 12.5994 51.2656 14.3235 51.3302 16.0442C51.3648 16.9668 51.6854 17.2055 52.5873 17.2505C52.883 17.2809 53.1768 17.3279 53.4672 17.3912L53.4511 17.578H46.7622C46.8717 17.4385 46.8936 17.3855 46.9167 17.3843C48.364 17.3509 48.4598 16.9068 48.5313 15.5241C48.6673 12.9385 48.6673 10.3448 48.6789 7.75455C48.687 6.03157 48.6166 4.30859 48.582 2.58562C48.582 2.52796 48.582 2.47029 48.582 2.41263C48.5463 0.811899 48.3848 0.440548 46.6722 0.411716C46.6215 0.411716 46.5707 0.380578 46.5107 0.245646C46.8717 0.216814 47.2338 0.162613 47.596 0.16146C49.5565 0.16146 51.5101 0.134933 53.4649 0.184523C54.6505 0.215661 55.8453 0.311385 56.9339 0.868411C58.8541 1.84984 59.5484 4.32128 58.4955 6.40408C57.9434 7.46317 57.186 8.40172 56.2674 9.16499C56.0367 9.3645 55.8902 9.52942 56.1405 9.82465C57.935 11.9467 59.7006 14.0917 61.5308 16.1861C61.9034 16.6128 62.4823 16.8976 63.0151 17.1398C63.9965 17.5873 64.9756 17.2413 65.4635 16.1987C66.1174 14.8148 66.6686 13.3802 67.243 11.9582C68.2809 9.39795 69.2958 6.82963 70.3256 4.26708C70.9023 2.84395 71.4789 1.42428 72.0555 0H72.7475C72.764 0.0745496 72.7848 0.148094 72.8098 0.220274C73.8639 2.78513 74.9183 5.34961 75.9732 7.9137C77.0307 10.4982 78.0756 13.0884 79.1366 15.6705C79.6578 16.9391 80.6358 17.4339 81.9736 17.299L81.9609 17.5331ZM51.223 7.81336H51.2414C51.2311 7.94714 51.2218 8.08092 51.2126 8.2147C51.1607 8.93203 51.3072 9.15461 52.0268 9.26186C52.5942 9.34579 53.167 9.38781 53.7406 9.38757C54.5732 9.38757 55.1787 8.97009 55.6365 8.28159C56.3216 7.25403 56.5061 6.10884 56.3873 4.92328C56.2339 3.39175 55.7472 1.98823 54.143 1.40583C53.4984 1.17518 52.7591 1.15672 52.0672 1.11867C51.4409 1.08522 51.2311 1.32741 51.2287 1.94556C51.2195 3.90265 51.223 5.85743 51.223 7.81336ZM71.8526 4.28322C71.6888 4.39855 71.6219 4.42623 71.6023 4.47005C70.9011 6.33219 70.2038 8.19586 69.5103 10.0611C69.395 10.3828 69.5437 10.5385 69.8666 10.5385C71.1133 10.5385 72.36 10.5385 73.6067 10.5385C73.9976 10.5385 74.0991 10.3494 73.963 9.97227C73.5813 8.91012 73.2399 7.83412 72.8513 6.77542C72.5503 5.95084 72.2043 5.15048 71.8526 4.28322Z" fill="#AEAEAE"/>
<path d="M17.1479 0.00390625L17.6738 0.208033C17.645 0.242631 17.6254 0.291067 17.6 0.293373C16.2738 0.438684 15.9589 0.789276 15.9462 2.13859C15.9162 5.02175 15.824 7.898 15.8851 10.7754C15.9093 11.8848 16.1734 13.0208 16.5194 14.0829C17.0591 15.7356 18.6091 16.7124 20.3517 16.7954C21.7633 16.8623 23.033 16.5648 24.0421 15.5407C24.3808 15.1746 24.6344 14.7383 24.7848 14.2629C25.0374 13.5052 25.3246 12.714 25.3396 11.931C25.4064 8.59457 25.3984 5.25587 25.3742 1.91832C25.3649 0.793889 24.884 0.397169 23.7596 0.334892C23.6027 0.32682 23.1414 0.534406 23.379 0.00967116H24.4169C24.5323 0.0558017 24.6557 0.142297 24.7768 0.14345C25.767 0.15652 26.7581 0.15652 27.7499 0.14345C27.8652 0.14345 27.9886 0.0534953 28.1074 0.00621151H29.1453C29.1661 0.455984 28.7671 0.338352 28.5629 0.374103C27.7118 0.524027 27.4004 0.707395 27.3555 1.53659C27.277 2.96894 27.3093 4.40822 27.3001 5.84519C27.2909 7.31906 27.3416 8.79639 27.2632 10.2668C27.2019 11.2967 27.0511 12.3193 26.8123 13.3229C26.3614 15.2489 25.1723 16.6063 23.3075 17.2706C20.5489 18.2531 17.8353 18.2105 15.3696 16.4541C13.9615 15.4507 13.4367 13.8604 13.3122 12.2331C13.1496 10.1157 13.2084 7.98103 13.1646 5.85326C13.1346 4.45435 13.1219 3.05429 13.0492 1.65769C12.9985 0.735075 12.6087 0.40524 11.6653 0.322205C11.4854 0.306059 11.3043 0.303754 10.9561 0.287608L11.6123 0.00390625H11.7276C11.9087 0.0523433 12.0897 0.142297 12.2708 0.14345C13.6593 0.151907 15.0482 0.148448 16.4375 0.133071C16.6022 0.11008 16.7633 0.0666918 16.9173 0.00390625H17.1479Z" fill="#AEAEAE"/>
<path d="M31.3323 0.00390625C31.7186 0.0915543 32.105 0.254161 32.4925 0.256468C36.2183 0.277227 39.9441 0.280689 43.6699 0.26685C44.0897 0.26685 44.5095 0.167669 44.9293 0.168822C45.0769 0.168822 45.349 0.327973 45.3514 0.421387C45.3836 1.37975 45.371 2.33926 45.371 3.30455L45.1622 3.31608C45.1179 3.20281 45.0794 3.08733 45.0469 2.9701C44.8508 2.12475 44.4414 1.6646 43.5984 1.59541C42.2675 1.487 40.9286 1.45471 39.592 1.43626C39.4674 1.43626 39.2391 1.76033 39.2298 1.94254C39.1952 2.6887 39.2298 3.44179 39.2298 4.18795C39.2298 7.87839 39.2298 11.5688 39.2298 15.2593C39.2238 15.4704 39.2288 15.6818 39.2448 15.8924C39.3394 16.7816 39.4939 17.4643 40.8294 17.3755C41.0786 17.3786 41.3271 17.4029 41.5721 17.4482L41.5583 17.6373H34.6848L34.6421 17.537C34.852 17.4805 35.0596 17.3859 35.2718 17.3732C35.815 17.3432 36.1495 17.0653 36.2256 16.5486C36.3442 15.8494 36.4132 15.1426 36.432 14.4335C36.4447 10.3245 36.432 6.21423 36.4205 2.10515C36.4205 1.75917 36.4539 1.37398 35.9246 1.38436L32.3656 1.4501C31.3473 1.4697 30.5308 1.80415 30.1871 2.86515C30.1786 2.91544 30.1556 2.96217 30.121 2.99964C30.0864 3.03712 30.0416 3.06372 29.9922 3.0762C29.8769 1.98521 30.1479 1.00032 30.4027 0.0165905L31.3323 0.00390625Z" fill="#AEAEAE"/>
<path d="M8.15181 0.00195312C9.05367 0.195701 9.22435 0.764259 9.06174 1.60037C8.96717 2.08129 9.05021 2.59679 9.03983 3.09962C9.03983 3.29567 8.99831 3.49288 8.97524 3.68893L8.81494 3.70508C8.76074 3.51941 8.69269 3.33719 8.65579 3.14806C8.42514 1.97749 7.73318 1.20827 6.59606 0.909571C5.32747 0.573971 4.09463 0.678918 3.13627 1.71686C2.36589 2.55182 2.32322 3.83194 3.12935 4.78338C3.77864 5.55146 4.59861 6.17653 5.34708 6.85926C6.38501 7.81301 7.53828 8.67565 8.46089 9.73434C10.3984 11.9509 9.94745 16.2584 6.48304 17.497C4.53748 18.1889 2.57578 18.152 0.625615 17.4727C0.196601 17.3228 -0.028286 17.0749 0.00285208 16.5778C0.0697414 15.526 0.0881937 14.4708 0.133171 13.4167C0.147277 13.3282 0.172462 13.2418 0.208133 13.1595L0.374203 13.1319C0.466591 13.4348 0.541295 13.7429 0.597936 14.0545C0.790531 15.5918 1.80656 16.707 3.33002 16.9838C4.57324 17.2144 5.72189 16.9953 6.58568 16.0116C7.62362 14.8248 7.55442 12.9658 6.35503 11.7099C5.57658 10.9026 4.60899 10.2706 3.79363 9.48985C2.8837 8.61798 1.91266 7.75996 1.21147 6.7324C-0.317755 4.4893 0.404188 1.26593 3.39229 0.283346C3.60041 0.201979 3.80338 0.108009 4.00006 0.00195312H8.15181Z" fill="#AEAEAE"/>
</svg>
