<svg width="87" height="21" viewBox="0 0 87 21" fill="none" xmlns="http://www.w3.org/2000/svg">
<path d="M19.6019 14.8042C19.9246 13.2353 20.2213 11.8054 20.5108 10.3726C20.9146 8.36815 21.3386 6.36657 21.7077 4.35485C21.9783 2.88008 20.9493 1.86409 19.4543 2.09855C17.4194 2.41695 16.5192 3.9337 15.9736 5.6603C15.5191 7.10757 15.2832 8.61274 14.9605 10.0947C14.6638 11.4595 14.3686 12.8258 14.108 14.1963C14.0256 14.6233 13.8823 14.823 13.4119 14.8114C12.2396 14.7825 11.0673 14.8013 9.77345 14.8013C9.96015 13.8287 10.1092 12.9864 10.2829 12.1484C10.7779 9.76767 11.296 7.39124 11.7721 5.00613C11.9169 4.25933 12.118 3.47636 11.5565 2.78745C10.9559 2.0479 9.80674 1.83515 8.77049 2.30551C7.29138 2.9756 6.47511 4.23763 6.10895 5.72398C5.45189 8.38697 4.92508 11.0789 4.35775 13.7679C4.14066 14.8013 4.15802 14.8042 3.06533 14.8042H0C0.102757 14.1891 0.169333 13.6753 0.273537 13.1702C1.13177 9.02087 2.01027 4.87298 2.84969 0.723638C2.95244 0.215644 3.12322 0 3.68766 0C10.6346 0.0188146 17.5743 0.0101334 24.5183 0.0115807C25.4619 0.0115807 26.0871 0.512338 26.0756 1.49504C26.0756 2.86292 25.9589 4.22831 25.7268 5.57635C25.1956 8.43907 24.5226 11.2757 23.9524 14.1326C23.8424 14.687 23.6195 14.8302 23.0942 14.8129C21.9711 14.7781 20.8466 14.8042 19.6019 14.8042Z" fill="#AEAEAE"/>
<path d="M73.2006 3.87846C73.2671 2.38921 73.8417 1.25021 74.7216 0.260272C74.8504 0.115544 75.1558 0.0764678 75.3845 0.0750205C78.664 0.0634423 81.9435 0.0750196 85.226 0.0605469C86.061 0.0605469 86.3071 0.697348 86.5936 1.25455C87.1726 2.3675 87.0278 3.57019 86.8035 4.72801C86.3693 6.92498 85.8411 9.10168 85.417 11.3001C85.1999 12.4232 85.1275 13.5738 84.9828 14.7953C83.8626 14.7953 82.6672 14.8141 81.4674 14.7736C81.3125 14.7736 81.1056 14.4754 81.0332 14.2771C80.9507 14.0412 80.9898 13.7634 80.9739 13.4261C80.8432 13.4727 80.718 13.5334 80.6005 13.607C78.7277 15.2352 76.5481 15.5493 74.2325 14.9704C70.3972 14.0108 70.4956 9.82531 72.3423 7.92359C73.4712 6.76577 74.8866 6.20278 76.4439 5.97556C78.0359 5.74255 79.6496 5.60651 81.246 5.36626C82.6513 5.15641 83.1274 4.56881 83.0579 3.3256C83.0058 2.45724 82.4009 1.85806 81.2546 1.64965C79.5903 1.34572 77.7436 1.79438 77.1516 3.50796C77.0966 3.66571 76.8622 3.79741 76.6885 3.86688C76.5438 3.92622 76.3556 3.8857 76.1877 3.8857L73.2006 3.87846ZM82.6368 7.50533C81.2329 7.69782 80.0462 7.83097 78.8739 8.03214C78.1621 8.13117 77.4645 8.31383 76.7956 8.57632C75.8925 8.96274 75.6059 9.78479 75.6638 10.7226C75.7116 11.4955 76.1906 12.0614 76.9461 12.2929C78.6322 12.8096 80.4196 12.2698 81.3038 10.7675C81.8828 9.77611 82.191 8.62263 82.6368 7.50533V7.50533Z" fill="#AEAEAE"/>
<path d="M59.0438 14.7966C57.7846 14.7966 56.5834 14.7966 55.3793 14.7966C55.2312 14.7761 55.0857 14.7402 54.9451 14.6895C55.0898 13.9166 55.2345 13.1684 55.3793 12.4216C55.8771 9.96702 56.3779 7.51341 56.8815 5.06076C57.0639 4.17647 57.3157 3.28784 56.4474 2.60039C55.5255 1.87675 54.5066 1.95201 53.4993 2.33119C51.9073 2.93181 51.0794 4.23871 50.7017 5.78584C50.0475 8.47343 49.4961 11.1885 48.9447 13.9007C48.8 14.5809 48.5669 14.882 47.8129 14.8241C46.7853 14.7445 45.7477 14.8038 44.6289 14.8038C44.634 14.5253 44.6562 14.2474 44.6955 13.9716C45.5045 10.2087 46.3656 6.4458 47.0994 2.66841C47.2557 1.85794 46.9547 0.959178 46.8635 0.00976562H47.5871H59.8094C60.8746 0.00976562 61.3609 0.323821 61.3898 1.39481C61.4239 2.64088 61.3269 3.88708 61.1004 5.11286C60.5388 8.1174 59.8673 11.1017 59.2363 14.086C59.1986 14.3031 59.1263 14.5086 59.0438 14.7966Z" fill="#AEAEAE"/>
<path d="M59.4619 20.2012C59.6761 19.1461 59.8339 18.2228 60.0712 17.3197C60.1219 17.1286 60.4591 16.8956 60.6747 16.8855C62.4462 16.7987 62.8008 16.557 63.1655 14.881C64.0078 11.0009 64.8241 7.11348 65.6519 3.229C65.8415 2.33458 66.0181 1.43582 66.2308 0.547193C66.2786 0.354706 66.4769 0.0536719 66.6144 0.0493301C67.8807 0.0117009 69.1485 0.0261732 70.522 0.0261732C70.2629 1.25346 70.0314 2.35484 69.7984 3.45477C68.9715 7.36241 68.1432 11.2701 67.3134 15.1777C67.2179 15.6249 67.0992 16.0678 66.9675 16.5049C66.1628 19.1867 64.7966 20.2533 61.9831 20.343C61.1798 20.372 60.365 20.2576 59.4619 20.2012Z" fill="#AEAEAE"/>
<path d="M34.6542 14.7247C31.2299 15.0851 28.4845 12.9779 27.8245 9.76204C27.1399 6.41738 27.9533 3.36797 29.4498 0.427109C29.5049 0.327219 29.5815 0.240848 29.6741 0.17426C29.7668 0.107672 29.873 0.0625363 29.9853 0.0421331C31.5194 0.010293 33.0564 0.0247665 34.66 0.0247665C34.3068 0.589204 33.9363 1.06391 33.6961 1.59506C33.4558 2.12621 33.3213 2.71815 33.1172 3.37521C33.3557 3.43011 33.5974 3.47023 33.8408 3.49533C34.4197 3.5098 34.9986 3.4881 35.5776 3.50546C36.5125 3.53296 37.2694 3.57928 37.8093 2.41422C38.4764 0.975628 41.358 0.738273 42.5853 1.80202C43.5535 2.64723 43.2713 4.26239 42.015 4.56053C40.6879 4.87893 39.313 5.01063 37.954 5.16549C36.362 5.3464 34.8047 5.61704 33.4255 6.49988C31.641 7.63165 30.8913 9.28443 31.1807 11.3208C31.4528 13.1762 32.751 14.1675 34.6542 14.7247Z" fill="#AEAEAE"/>
<path d="M42.2473 7.20898C41.8768 8.17866 41.5932 9.17583 41.1257 10.0775C40.4194 11.4394 38.8434 12.0791 37.2412 11.8012C36.2831 11.6348 35.6912 11.1253 35.5609 10.3539C35.4905 9.91079 35.5652 9.45679 35.7739 9.05958C35.9825 8.66237 36.314 8.34322 36.7188 8.14971C37.1795 7.94307 37.6665 7.80087 38.166 7.72711C39.4584 7.53317 40.7653 7.38845 42.2473 7.20898Z" fill="#AEAEAE"/>
</svg>
