<svg width="97" height="18" viewBox="0 0 97 18" fill="none" xmlns="http://www.w3.org/2000/svg">
<path d="M65.6836 10.8278C65.7233 10.7401 65.7585 10.6504 65.7889 10.559C66.297 8.81049 66.8026 7.062 67.3057 5.3135C67.6972 3.96229 68.0977 2.61107 68.4837 1.26124C68.544 1.04851 68.6264 0.955661 68.8565 0.957047C70.1149 0.964669 71.3732 0.957047 72.6323 0.957047C72.8007 0.957047 72.89 0.980606 72.9219 1.19264C73.2552 3.38023 73.6086 5.56434 73.9488 7.75054C74.1872 9.28677 74.4159 10.8251 74.6418 12.3627C74.8497 13.7645 75.0513 15.1677 75.2599 16.5688C75.2917 16.7808 75.2543 16.8854 75.0021 16.8834C73.8592 16.8723 72.7163 16.8723 71.5735 16.8834C71.3559 16.8834 71.2582 16.8071 71.227 16.5979C71.0399 15.1815 70.8507 13.7652 70.6595 12.3488C70.4939 11.1168 70.32 9.88546 70.1654 8.65204C70.0961 8.12611 70.0747 7.59532 70.0269 7.06731C70.0226 7.03449 70.0106 7.00315 69.9918 6.97592C69.973 6.94868 69.9479 6.92632 69.9188 6.91071C69.8862 7.04929 69.8585 7.18788 69.8211 7.32231C69.5286 8.38804 69.2404 9.45515 68.9396 10.5188C68.4186 12.3606 67.8892 14.199 67.3639 16.0394C67.1242 16.8799 67.1249 16.8799 66.2393 16.8799C65.6732 16.8799 65.1077 16.8702 64.5423 16.8841C64.3192 16.8903 64.2083 16.8148 64.1453 16.6C63.559 14.5995 62.9562 12.6031 62.3776 10.5992C62.0422 9.43783 61.7436 8.26608 61.4269 7.09919C61.3939 7.01116 61.3565 6.92489 61.3146 6.84072C61.2765 7.15878 61.2509 7.38329 61.2232 7.60641C61.0423 9.08028 60.8642 10.5541 60.6778 12.0266C60.49 13.5116 60.2856 14.9944 60.1069 16.4808C60.0701 16.7815 59.9759 16.891 59.6571 16.8854C58.5727 16.8654 57.4869 16.8785 56.4004 16.8785C55.9846 16.8785 55.9777 16.8785 56.0435 16.4628C56.2805 14.9723 56.5286 13.4832 56.7614 11.9927C57.0143 10.3761 57.2534 8.75737 57.5021 7.14215C57.6851 5.95793 57.8756 4.7744 58.0613 3.59018C58.184 2.80509 58.3108 2.0207 58.421 1.23422C58.4514 1.01387 58.5478 0.957047 58.7591 0.957047C59.9948 0.965824 61.2301 0.965824 62.4649 0.957047C62.6908 0.957047 62.785 1.03188 62.8481 1.24877C63.3331 2.9118 63.8314 4.56445 64.3199 6.22332C64.6894 7.4706 65.0511 8.72064 65.405 9.97346C65.4847 10.2541 65.5339 10.5431 65.5976 10.8278H65.6836Z" fill="#AEAEAE"/>
<path d="M14.1829 16.8771C13.5939 16.8771 13.0049 16.8626 12.4166 16.884C12.1394 16.8944 12.005 16.796 11.9191 16.5376C11.6973 15.8592 11.4423 15.1919 11.2164 14.5149C11.1472 14.3126 11.0626 14.2239 10.8305 14.2253C9.00669 14.2364 7.18197 14.2364 5.35633 14.2253C5.11103 14.2253 5.00986 14.3133 4.9475 14.5357C4.74447 15.2439 4.51996 15.9465 4.31208 16.654C4.26081 16.8286 4.16657 16.8834 3.98918 16.8827C2.75368 16.8764 1.51888 16.8737 0.283383 16.8827C-0.0145771 16.8827 -0.0443732 16.7704 0.0429361 16.5265C0.341358 15.6908 0.635393 14.8535 0.925038 14.0146C1.68726 11.7924 2.44325 9.56808 3.20755 7.34655C3.70646 5.89832 4.21854 4.45564 4.72022 3.0088C4.91701 2.44268 5.11172 1.87586 5.28704 1.3035C5.36118 1.05959 5.47066 0.957031 5.74368 0.957031C7.33649 0.96858 8.93024 0.96858 10.5249 0.957031C10.7737 0.957031 10.8949 1.03603 10.9753 1.27162C11.4056 2.53691 11.8519 3.79666 12.2919 5.05849C12.9543 6.96266 13.6161 8.86707 14.2771 10.7717C14.9465 12.7119 15.6075 14.6521 16.2804 16.5875C16.367 16.8369 16.2859 16.8875 16.0538 16.884C15.4302 16.8709 14.8065 16.8764 14.1829 16.8771ZM7.99224 5.48326C7.9386 5.55831 7.8911 5.63756 7.85019 5.72024C7.37692 7.12827 6.90988 8.5377 6.43245 9.94712C6.34168 10.2132 6.46918 10.2395 6.67844 10.2388C7.56678 10.2347 8.45512 10.2305 9.34345 10.2388C9.63656 10.2423 9.65527 10.1515 9.56103 9.89238C9.1626 8.80032 8.7898 7.69994 8.40384 6.60303C8.27842 6.24895 8.14399 5.89832 7.99085 5.48326H7.99224Z" fill="#AEAEAE"/>
<path d="M33.1525 16.8769C31.5462 16.8769 30.0114 16.8824 28.4766 16.8665C28.3629 16.8665 28.2112 16.739 28.1453 16.6302C27.5342 15.6123 26.9383 14.5846 26.3375 13.564C25.8233 12.6862 25.3087 11.8113 24.7936 10.9391C24.7513 10.8834 24.705 10.8308 24.655 10.7818C24.6447 10.9682 24.6322 11.0867 24.6322 11.2052C24.6322 12.9258 24.6322 14.6463 24.6322 16.3669C24.6322 16.9586 24.7015 16.8699 24.1111 16.8741C23.0488 16.881 21.9866 16.8665 20.9236 16.8831C20.6146 16.888 20.5335 16.7819 20.5342 16.4847C20.5416 11.52 20.5434 6.55404 20.5397 1.58665C20.5397 0.954696 20.5473 0.952618 21.1897 0.95539C23.0488 0.962319 24.908 0.942917 26.7657 0.992115C27.5484 1.00318 28.327 1.10621 29.0856 1.29908C30.7487 1.7481 31.777 2.88797 32.2121 4.542C32.5613 5.8142 32.4252 7.17077 31.8303 8.34827C31.276 9.46389 30.2858 10.0168 29.157 10.3806C28.814 10.4908 28.8286 10.4756 29.033 10.7715C29.6566 11.6723 30.2581 12.5855 30.8727 13.4912C31.5587 14.5029 32.2468 15.5132 32.937 16.5221C33 16.6129 33.0541 16.7147 33.1525 16.8769ZM24.6294 6.39767C24.6294 6.99705 24.6384 7.59644 24.6246 8.19513C24.6197 8.43835 24.7091 8.5312 24.9454 8.51527C25.3473 8.48894 25.7506 8.48201 26.1511 8.44597C27.5023 8.33372 28.155 7.60614 28.1093 6.2764C28.074 5.25572 27.476 4.49003 26.616 4.40133C26.0679 4.34521 25.5157 4.33204 24.9655 4.29462C24.7167 4.27799 24.619 4.37292 24.6239 4.63277C24.637 5.22246 24.6266 5.81006 24.6273 6.39767H24.6294Z" fill="#AEAEAE"/>
<path d="M96.0088 7.1194C95.8654 7.45409 95.7531 7.8061 95.5715 8.11861C95.0456 9.01942 94.4026 9.83153 93.5142 10.4122C93.2933 10.5563 93.0589 10.6786 92.8144 10.7774C92.5857 10.8709 92.4922 10.9638 92.5899 11.2347C93.0202 12.4273 93.4283 13.6281 93.8413 14.8269C94.0395 15.4041 94.2224 15.9868 94.4275 16.5592C94.5197 16.817 94.4372 16.8786 94.185 16.8766C92.9848 16.8682 91.7833 16.8634 90.5818 16.8766C90.3011 16.8807 90.166 16.7858 90.0801 16.5301C89.5749 15.0701 89.058 13.6149 88.5445 12.1584C88.3831 11.7024 88.2362 11.2396 88.0449 10.7961C88.0076 10.718 87.9552 10.648 87.8908 10.5902C87.8263 10.5324 87.7511 10.4879 87.6694 10.4593C86.6501 10.1863 85.6453 10.1129 84.7168 10.776C84.3315 11.0532 84.15 11.2721 84.0717 11.7073C84.3953 11.4953 84.6821 11.2818 84.9912 11.11C85.4381 10.8612 85.91 10.6776 86.4401 10.7711C87.0395 10.8772 87.3409 11.1952 87.4151 11.8057C87.4296 11.918 87.4428 12.0302 87.4601 12.1667C86.982 11.7004 86.4713 11.6311 85.8033 11.9277C84.9157 12.3212 84.1652 12.868 83.7425 13.7805C83.3753 14.5733 82.9754 15.3528 82.6435 16.1601C82.3567 16.8585 82.3899 16.8724 81.6429 16.8724H78.1152C78.2857 16.368 78.4368 15.9134 78.594 15.4609C79.4778 12.9132 80.3617 10.3656 81.2459 7.81788C81.9471 5.79313 82.6463 3.76747 83.3434 1.74087C83.6136 0.953704 83.6074 0.951624 84.4313 0.951624C85.84 0.951624 87.2488 0.961325 88.6582 0.945388C88.9707 0.941923 89.0989 1.05764 89.1945 1.34174C89.6844 2.79274 90.1979 4.23612 90.6968 5.68434C91.0945 6.83877 91.4985 7.99111 91.8658 9.15523C91.9676 9.47953 92.1187 9.56268 92.4326 9.53635C93.6701 9.43102 94.5716 8.76165 95.3429 7.8553C95.5577 7.60238 95.7919 7.36609 96.0171 7.12218L96.0088 7.1194ZM84.8831 9.16493C85.5349 8.75421 86.292 8.54187 87.0624 8.55377C87.2411 8.55377 87.2203 8.45953 87.1705 8.32233C86.9418 7.69523 86.7291 7.06258 86.5066 6.43271C86.3978 6.12574 86.2821 5.82154 86.1602 5.49864C86.1013 5.54853 86.0749 5.56031 86.0687 5.57833C85.6869 6.73621 85.3037 7.89479 84.8831 9.16493Z" fill="#AEAEAE"/>
<path d="M50.3439 1.83472C50.804 2.24701 51.314 2.61773 51.7159 3.08199C52.7336 4.22536 53.4376 5.61288 53.7594 7.10931C53.9146 7.84312 53.898 8.62406 53.8813 9.38143C53.8432 11.4069 53.1191 13.1794 51.8067 14.717C51.4602 15.1196 51.1103 15.5146 50.7618 15.913L50.6308 15.8132C50.5927 15.7342 50.5539 15.6559 50.5179 15.5762C50.1929 14.8639 49.8776 14.1481 49.5394 13.4427C49.4355 13.2244 49.4556 13.0657 49.5949 12.8745C49.9136 12.4386 50.2719 12.0166 50.504 11.5358C51.1276 10.2393 51.1761 8.87143 50.8345 7.48765C50.3973 5.71652 49.4397 4.30432 47.7635 3.52824C45.3777 2.4244 43.0113 2.405 40.7773 3.97172C39.6569 4.7445 38.8342 5.87696 38.4456 7.18137C37.998 8.64277 38.0929 10.0723 38.7921 11.4484C39.6118 13.0574 40.8355 14.2319 42.5443 14.8376C43.3852 15.1353 44.284 15.2326 45.1691 15.1217C45.7172 15.0524 45.7124 15.0524 45.8821 15.5839C46.0782 16.1985 46.2917 16.8083 46.5058 17.4167C46.5855 17.6412 46.5009 17.7493 46.2889 17.7493C45.1698 17.7493 44.0403 17.831 42.9344 17.7084C41.6324 17.5636 40.4239 17.0612 39.3118 16.3392C37.8351 15.3801 36.7479 14.0996 36.0799 12.4788C35.7196 11.603 35.5443 10.6772 35.4501 9.72651C35.3464 8.75067 35.3831 7.76502 35.5589 6.79957C35.8125 5.44073 36.5172 4.31125 37.4478 3.32383C38.0077 2.72998 38.5828 2.13129 39.2342 1.64693C40.329 0.832739 41.5728 0.292945 42.9407 0.141886C43.8304 0.0434903 44.7381 -0.0431255 45.6258 0.0233959C47.2444 0.136717 48.8016 0.689154 50.1298 1.62129C50.206 1.6874 50.2745 1.76177 50.3342 1.84303L50.3384 1.85689L50.3439 1.83472Z" fill="#AEAEAE"/>
<path d="M49.252 12.587C49.1057 12.2794 48.9436 12.0417 48.8847 11.7805C48.8459 11.6072 48.8923 11.3342 49.0101 11.2199C49.7495 10.5013 49.7446 9.65733 49.437 8.78424C49.1736 7.99961 48.6486 7.32932 47.9499 6.88561C47.0547 6.31948 46.1358 6.63407 45.8427 7.64783C45.4609 8.96994 45.833 10.1327 46.7491 11.1243C47.0554 11.4555 47.4725 11.5989 47.9347 11.6093C48.3394 11.6197 48.4835 11.7479 48.5971 12.1352C48.6664 12.3785 48.7558 12.6203 48.814 12.8635C48.823 12.9094 48.8226 12.9566 48.8128 13.0024C48.8031 13.0481 48.7841 13.0914 48.7572 13.1296C48.1086 13.8676 47.2528 14.2515 46.3319 14.512C46.2922 14.5183 46.2515 14.5147 46.2135 14.5014C46.1755 14.4881 46.1415 14.4655 46.1144 14.4358C45.9467 14.1212 45.797 13.7969 45.6459 13.4733C45.4686 13.0936 45.4568 12.7173 45.6854 12.3514C45.8753 12.0479 45.9287 11.723 45.7915 11.391C45.4485 10.5595 45.0937 9.7384 44.741 8.91312C44.7257 8.87847 44.6807 8.85561 44.5851 8.85769C44.7417 9.30809 44.9135 9.75365 45.0466 10.211C45.0985 10.3877 45.0611 10.5907 45.0646 10.782C44.9426 10.6351 44.7791 10.5048 44.7077 10.3385C44.5151 9.88253 44.3612 9.40926 44.1915 8.9443C44.1433 8.80542 44.0713 8.67599 43.9788 8.5618C44.0972 9.37877 44.5837 10.1008 44.5934 10.9386L44.4971 10.9926C44.4188 10.872 44.3176 10.7612 44.2649 10.6302C44.0522 10.1077 43.8561 9.57903 43.6503 9.05379C43.618 8.98711 43.5807 8.92295 43.5387 8.86184L43.4625 8.89164C43.536 9.11476 43.6011 9.33927 43.6822 9.56101C43.8249 9.96291 43.9829 10.3593 44.1118 10.7653C44.143 10.863 44.0862 10.9884 44.0695 11.1014C43.976 11.0321 43.8346 10.9836 43.7979 10.8935C43.59 10.3807 43.4126 9.85412 43.2214 9.33858C43.1756 9.21385 43.1209 9.0912 43.0675 8.96093C43.0211 8.9935 42.9872 9.01013 42.9886 9.01637C43.2824 10.0433 43.5685 11.073 43.8797 12.0951C43.9905 12.4588 44.2629 12.6889 44.6419 12.7824C45.2752 12.9384 45.2725 13.5024 45.4041 13.9798C45.4339 14.09 45.4339 14.2085 45.4637 14.3187C45.5718 14.7088 45.5614 14.715 45.1664 14.7344C43.9192 14.8037 42.7349 14.5896 41.6394 13.9577C40.7386 13.4387 40.0387 12.7235 39.4872 11.8539C38.2738 9.94282 38.384 6.74009 40.3249 4.90382C41.2375 4.04043 42.2845 3.46876 43.5401 3.27959C44.7604 3.09527 45.9585 3.12091 47.1059 3.60666C49.2326 4.50747 50.608 6.43312 50.6468 8.77107C50.669 10.1022 50.3454 11.3017 49.4889 12.3376C49.421 12.4152 49.3483 12.4845 49.252 12.587Z" fill="#AEAEAE"/>
<path d="M47.347 17.4955C47.2937 17.4312 47.2473 17.3615 47.2084 17.2876C46.9188 16.5739 46.6312 15.8581 46.354 15.1395C46.3515 15.1039 46.3582 15.0682 46.3735 15.0359C46.3888 15.0036 46.4122 14.9758 46.4413 14.9552C47.3581 14.7016 48.1501 14.2179 48.8957 13.6455C49.0814 13.5035 49.1098 13.6649 49.1507 13.7765C49.3842 14.4147 49.6101 15.0557 49.8436 15.6938C50.0515 16.2676 50.0785 16.3133 49.5311 16.5947C48.8791 16.9286 48.1813 17.1719 47.5029 17.4539C47.4717 17.4629 47.4371 17.4691 47.347 17.4955Z" fill="#AEAEAE"/>
<path d="M64.2568 17.998L64.2804 18.0001L64.2652 17.9987L64.2568 17.998Z" fill="white"/>
</svg>
