<svg width="391" height="91" viewBox="0 0 391 91" fill="none" xmlns="http://www.w3.org/2000/svg">
<path fill-rule="evenodd" clip-rule="evenodd" d="M10.8516 15.7528C11.7201 15.574 13.7535 15.2419 14.9388 15.3441C17.289 11.5974 25.1314 4.68659 37.6997 7.01633C39.9563 7.56981 44.5612 10.7459 44.9291 19.0226C44.9291 21.414 44.5552 24.2215 44.2151 26.7753C43.8759 29.323 43.5702 31.6182 43.7029 32.996C43.8306 36.0103 46.8297 43.0149 47.688 43.3418C47.9434 43.4696 48.4441 43.536 48.4033 42.7798C46.8961 39.5271 44.2853 31.9537 45.8998 27.6825C46.3085 28.0742 47.126 28.9853 47.126 29.4963C47.5432 33.7623 52.7204 49.4472 54.764 47.8633L56.9354 46.1007C57.4207 45.6262 56.3825 43.6963 55.0006 41.1279C53.1095 37.6128 50.5748 32.9016 50.4213 29.0875C53.7763 29.9901 61.2832 30.1962 64.4713 23.7996C65.7145 21.7134 67.455 16.4885 64.4713 12.2787C61.8401 7.49317 53.3693 -1.6129 40.5353 0.246803C41.1399 0.732142 42.2264 2.23417 41.7359 4.35958C34.5491 3.57618 18.3108 4.75806 10.8516 15.7528ZM45.9296 3.46213C46.0352 3.86618 46.1552 4.32476 46.1552 4.81637C46.1552 5.69513 45.9764 6.40021 45.8997 6.52791C47.1003 10.7003 48.9243 19.7399 47.1259 23.8476C47.2093 23.8737 47.2998 23.9022 47.3964 23.9326C49.0661 24.458 52.58 25.5636 53.3334 25.0227C53.4692 24.9001 53.6091 24.776 53.7515 24.6497C55.0826 23.4686 56.6341 22.0921 57.1141 19.9137C57.149 19.8439 57.1942 19.6583 57.2524 19.4193C57.4784 18.4908 57.9004 16.7579 58.6724 17.8955C58.5021 20.1861 57.6966 25.0074 56.5521 25.6614C60.154 25.0227 60.8948 24.3841 62.6064 20.2713C62.6375 20.1204 62.6763 19.9608 62.7175 19.7912C63.1505 18.0092 63.8507 15.1282 58.6724 9.66994C56.3733 7.33679 50.5745 2.2516 45.772 2.61945C45.772 2.85954 45.8464 3.14393 45.9296 3.46213Z" fill="#4FC500"/>
<path d="M23.8279 41.8606C20.9668 47.1945 23.1296 59.2911 24.5687 64.6726C21.8507 62.9151 20.8306 49.8563 20.6603 43.5467C10.1765 47.4909 2.72747 42.3973 0.760463 35.4234C-1.56928 28.0663 2.0037 22.3696 4.10694 20.096C5.47789 18.5718 9.93642 15.559 16.803 15.7022C18.4174 15.6613 19.1446 16.6218 19.3064 17.1072C19.4852 18.0014 18.6422 17.5766 17.3394 17.6436C9.00143 18.0728 4.60852 23.3404 3.74928 26.0227C1.8589 31.9238 4.60933 35.7553 6.58484 38.2077C11.1626 43.2963 19.9876 40.6004 23.8279 38.6164C25.4423 37.2676 27.566 33.8649 28.4261 32.3322C27.7108 32.3322 25.4203 32.0086 24.3644 31.8469C22.0346 31.4586 22.1845 30.4248 22.5507 29.9565C27.251 29.8952 32.4793 28.0747 34.5059 27.1721C39.4719 24.7197 41.1392 20.1215 41.352 18.129C41.8425 16.2897 42.7315 16.6814 43.1147 17.1072C43.8299 20.3974 41.1477 24.4217 39.7171 26.0225C40.412 27.1465 41.3691 32.3493 41.7608 34.8101C42.1491 37.4055 41.2413 38.4291 40.7389 38.6164C40.4733 35.3261 38.0567 31.1146 36.8816 29.42C36.3911 28.6639 35.3318 29.105 34.8635 29.42C34.7613 30.0127 35.4511 32.6303 35.8087 33.8649C35.9123 34.2226 35.9875 34.8357 35.8853 35.2189C35.6401 36.1385 35.0764 36.4706 34.5059 36.726C34.6081 35.9342 32.9817 32.6558 31.9513 31.5659L30.6996 32.3322C30.5361 33.681 26.0503 39.2465 23.8279 41.8606Z" fill="#4FC500"/>
<path d="M56.4959 51.554L52.2012 55.0754C50.0787 52.4265 47.4286 51.1021 44.2509 51.1021C41.569 51.1021 39.1634 52.006 37.034 53.8137C34.9174 55.6215 33.6493 57.8499 33.2298 60.4988C32.9375 62.3442 33.0847 63.9825 33.6715 65.4137C34.2583 66.8448 35.2307 67.9684 36.5886 68.7844C37.9464 69.6005 39.5342 70.0085 41.3518 70.0085C42.9025 70.0085 44.3644 69.726 45.7377 69.1611C47.1129 68.5836 48.6888 67.5416 50.4654 66.0351L53.4973 69.7637C51.1094 71.7598 48.9322 73.147 46.9659 73.9253C45.0016 74.6911 42.8374 75.074 40.4732 75.074C36.1135 75.074 32.7576 73.7119 30.4055 70.9877C28.068 68.2509 27.2373 64.7483 27.9134 60.4799C28.3508 57.7181 29.3687 55.2637 30.9671 53.117C32.5781 50.9703 34.6628 49.2441 37.221 47.9385C39.792 46.6328 42.4375 45.98 45.1575 45.98C47.4708 45.98 49.6186 46.4634 51.6009 47.43C53.5959 48.3967 55.2275 49.7713 56.4959 51.554ZM61.516 45.98H66.6828L65.1021 55.9605C66.2561 55.0943 67.3817 54.4477 68.4789 54.0209C69.578 53.5815 70.6551 53.3618 71.71 53.3618C73.7691 53.3618 75.3928 54.0648 76.581 55.4709C77.5956 56.6886 77.916 58.4776 77.5422 60.8377L75.3977 74.3773H70.269L71.6917 65.3949C72.0675 63.0221 72.2076 61.4152 72.112 60.5741C72.0165 59.733 71.7219 59.1053 71.2282 58.691C70.7473 58.2767 70.1001 58.0696 69.2866 58.0696C68.2316 58.0696 67.2682 58.4148 66.3962 59.1053C65.5369 59.7957 64.8666 60.7373 64.3854 61.9299C64.1354 62.5451 63.8365 63.9511 63.4885 66.1481L62.1851 74.3773H57.0183L61.516 45.98ZM102.619 65.6208H85.8981C85.9089 67.0771 86.3669 68.2383 87.2719 69.1046C88.1917 69.9582 89.4651 70.3851 91.092 70.3851C93.0367 70.3851 94.8145 69.7134 96.4254 68.3702L100.488 70.4039C99.1528 71.9355 97.6636 73.0716 96.0211 73.8123C94.3805 74.5405 92.5116 74.9045 90.4143 74.9045C87.1604 74.9045 84.6703 73.8939 82.9441 71.8727C81.2198 69.839 80.5992 67.2968 81.0824 64.2462C81.5775 61.1202 83.005 58.5278 85.3647 56.4689C87.7392 54.3975 90.4644 53.3618 93.5404 53.3618C96.807 53.3618 99.2994 54.3975 101.018 56.4689C102.738 58.5278 103.33 61.252 102.793 64.6416L102.619 65.6208ZM98.036 61.5721C97.8737 60.4297 97.3409 59.5007 96.4374 58.7851C95.5466 58.0696 94.4339 57.7118 93.0993 57.7118C91.6503 57.7118 90.3156 58.1135 89.0952 58.917C88.3293 59.4191 87.5536 60.3042 86.7681 61.5721H98.036ZM106.231 53.8891H108.08C108.519 51.2025 108.815 49.6144 108.968 49.1248C109.287 47.9949 109.905 47.1036 110.822 46.4508C111.753 45.7854 112.969 45.4528 114.469 45.4528C115.549 45.4528 116.731 45.6976 118.013 46.1872L117.393 50.104C116.677 49.8906 116.077 49.7839 115.594 49.7839C114.984 49.7839 114.519 49.9094 114.2 50.1605C113.967 50.3488 113.803 50.738 113.71 51.328L113.285 53.8891H116.584L115.892 58.2579H112.593L110.04 74.3773H104.835L107.388 58.2579H105.539L106.231 53.8891Z" fill="#4FC500"/>
<path d="M121.348 46.6768H127.011C130.074 46.6768 132.235 46.9592 133.493 47.5242C134.765 48.0765 135.69 48.9804 136.266 50.2358C136.857 51.4787 137.015 52.9726 136.738 54.7176C136.432 56.651 135.663 58.2579 134.431 59.5384C133.211 60.8189 131.684 61.7102 129.851 62.2124C128.775 62.5011 126.878 62.6455 124.158 62.6455L122.3 74.3773H116.961L121.348 46.6768ZM124.972 57.5046H126.669C128.003 57.5046 128.946 57.4105 129.497 57.2222C130.048 57.0339 130.504 56.7263 130.863 56.2994C131.238 55.8601 131.474 55.3328 131.572 54.7176C131.741 53.6505 131.444 52.8722 130.683 52.3826C130.131 52.0185 129.028 51.8365 127.376 51.8365H125.87L124.972 57.5046ZM156.87 53.8891H162.056L158.811 74.3773H153.625L153.968 72.2117C152.8 73.1658 151.667 73.8563 150.57 74.2831C149.488 74.6974 148.349 74.9045 147.154 74.9045C144.472 74.9045 142.315 73.8814 140.681 71.8351C139.05 69.7762 138.476 67.2215 138.959 64.1708C139.46 61.0072 140.818 58.4148 143.032 56.3936C145.246 54.3724 147.706 53.3618 150.414 53.3618C151.659 53.3618 152.792 53.5941 153.811 54.0585C154.831 54.523 155.731 55.2198 156.512 56.1488L156.87 53.8891ZM150.73 58.1072C149.115 58.1072 147.685 58.6722 146.438 59.802C145.194 60.9193 144.432 62.3568 144.154 64.1143C143.874 65.8845 144.183 67.3407 145.083 68.4831C145.995 69.6256 147.245 70.1968 148.834 70.1968C150.474 70.1968 151.922 69.6381 153.18 68.5208C154.439 67.3909 155.213 65.9158 155.501 64.0955C155.783 62.3128 155.472 60.8691 154.566 59.7644C153.661 58.6596 152.382 58.1072 150.73 58.1072ZM172.485 53.8891L172.127 56.1488C173.214 55.2198 174.342 54.523 175.508 54.0585C176.675 53.5941 177.881 53.3618 179.127 53.3618C181.834 53.3618 183.975 54.3724 185.548 56.3936C187.122 58.4148 187.658 61.0072 187.157 64.1708C186.674 67.2215 185.291 69.7762 183.007 71.8351C180.726 73.8814 178.244 74.9045 175.562 74.9045C174.367 74.9045 173.288 74.6974 172.324 74.2831C171.362 73.8563 170.448 73.1658 169.583 72.2117L168.053 81.872H162.886L167.318 53.8891H172.485ZM177.288 58.1072C175.649 58.1072 174.201 58.6596 172.946 59.7644C171.69 60.8691 170.922 62.3128 170.639 64.0955C170.351 65.9158 170.658 67.3909 171.559 68.5208C172.462 69.6381 173.734 70.1968 175.374 70.1968C176.962 70.1968 178.387 69.6256 179.649 68.4831C180.923 67.3407 181.7 65.8845 181.98 64.1143C182.259 62.3568 181.953 60.9193 181.062 59.802C180.173 58.6722 178.915 58.1072 177.288 58.1072ZM208.424 53.8891H213.609L210.364 74.3773H205.179L205.522 72.2117C204.354 73.1658 203.221 73.8563 202.124 74.2831C201.041 74.6974 199.903 74.9045 198.708 74.9045C196.026 74.9045 193.868 73.8814 192.235 71.8351C190.604 69.7762 190.03 67.2215 190.513 64.1708C191.014 61.0072 192.372 58.4148 194.586 56.3936C196.8 54.3724 199.26 53.3618 201.968 53.3618C203.213 53.3618 204.346 53.5941 205.365 54.0585C206.385 54.523 207.285 55.2198 208.066 56.1488L208.424 53.8891ZM202.284 58.1072C200.669 58.1072 199.239 58.6722 197.992 59.802C196.748 60.9193 195.986 62.3568 195.708 64.1143C195.427 65.8845 195.737 67.3407 196.636 68.4831C197.549 69.6256 198.799 70.1968 200.388 70.1968C202.028 70.1968 203.476 69.6381 204.733 68.5208C205.993 67.3909 206.767 65.9158 207.055 64.0955C207.337 62.3128 207.026 60.8691 206.12 59.7644C205.215 58.6596 203.936 58.1072 202.284 58.1072ZM222.648 45.4528C223.576 45.4528 224.312 45.7792 224.857 46.432C225.415 47.0848 225.62 47.8757 225.473 48.8047C225.328 49.7211 224.879 50.5058 224.128 51.1586C223.376 51.8114 222.549 52.1378 221.647 52.1378C220.719 52.1378 219.977 51.8051 219.422 51.1397C218.879 50.4744 218.682 49.6709 218.831 48.7294C218.974 47.8255 219.414 47.0534 220.151 46.4131C220.901 45.7729 221.733 45.4528 222.648 45.4528ZM218.719 53.8891H223.924L220.572 75.0552C220.264 77.0011 219.837 78.4511 219.292 79.4052C218.757 80.3718 218.03 81.1125 217.109 81.6272C216.189 82.1419 215.138 82.3993 213.956 82.3993C212.913 82.3993 211.658 82.1419 210.189 81.6272L210.83 77.5785C211.582 77.9677 212.269 78.1623 212.892 78.1623C213.553 78.1623 214.079 77.9677 214.471 77.5785C214.863 77.1894 215.142 76.4738 215.307 75.4318L218.719 53.8891ZM238.841 53.3618C240.798 53.3618 242.558 53.8451 244.121 54.8118C245.697 55.7785 246.836 57.0904 247.54 58.7475C248.243 60.4046 248.443 62.1936 248.139 64.1143C247.833 66.0477 247.057 67.8554 245.812 69.5377C244.579 71.2199 243.049 72.5381 241.22 73.4922C239.393 74.4338 237.469 74.9045 235.448 74.9045C232.474 74.9045 230.096 73.8626 228.317 71.7786C226.551 69.6821 225.905 67.1399 226.379 64.152C226.886 60.9507 228.497 58.283 231.212 56.1488C233.59 54.2908 236.133 53.3618 238.841 53.3618ZM238.151 58.2014C236.536 58.2014 235.101 58.76 233.843 59.8773C232.6 60.9821 231.842 62.4007 231.568 64.1332C231.285 65.9158 231.584 67.3596 232.464 68.4643C233.357 69.5691 234.617 70.1214 236.244 70.1214C237.87 70.1214 239.313 69.5628 240.57 68.4455C241.827 67.3282 242.595 65.8907 242.874 64.1332C243.152 62.3756 242.844 60.9507 241.949 59.8585C241.069 58.7538 239.803 58.2014 238.151 58.2014ZM255.301 45.98H260.468L258.887 55.9605C260.041 55.0943 261.166 54.4477 262.264 54.0209C263.363 53.5815 264.44 53.3618 265.495 53.3618C267.554 53.3618 269.178 54.0648 270.366 55.4709C271.38 56.6886 271.701 58.4776 271.327 60.8377L269.182 74.3773H264.054L265.476 65.3949C265.852 63.0221 265.992 61.4152 265.897 60.5741C265.801 59.733 265.507 59.1053 265.013 58.691C264.532 58.2767 263.885 58.0696 263.071 58.0696C262.016 58.0696 261.053 58.4148 260.181 59.1053C259.322 59.7957 258.651 60.7373 258.17 61.9299C257.92 62.5451 257.621 63.9511 257.273 66.1481L255.97 74.3773H250.803L255.301 45.98ZM277.926 69.0104C278.752 69.0104 279.412 69.2992 279.905 69.8766C280.4 70.4416 280.583 71.132 280.454 71.9481C280.325 72.7641 279.922 73.4608 279.246 74.0383C278.57 74.6158 277.818 74.9045 276.992 74.9045C276.166 74.9045 275.506 74.6158 275.013 74.0383C274.52 73.4608 274.338 72.7641 274.467 71.9481C274.596 71.132 274.998 70.4416 275.672 69.8766C276.348 69.2992 277.1 69.0104 277.926 69.0104ZM308.073 58.0319L303.372 60.3858C302.692 59.5447 301.977 58.9609 301.228 58.6345C300.491 58.3081 299.589 58.1449 298.522 58.1449C296.577 58.1449 294.91 58.7224 293.519 59.8773C292.143 61.0198 291.313 62.4886 291.029 64.2838C290.753 66.0288 291.105 67.4537 292.087 68.5585C293.069 69.6632 294.5 70.2156 296.381 70.2156C298.707 70.2156 300.643 69.431 302.188 67.8617L305.848 70.6299C303.173 73.4797 299.808 74.9045 295.753 74.9045C292.105 74.9045 289.414 73.8374 287.68 71.7033C285.959 69.5691 285.325 67.0708 285.779 64.2085C286.093 62.225 286.884 60.3983 288.153 58.7287C289.421 57.059 291.027 55.7471 292.971 54.793C294.927 53.8389 297.017 53.3618 299.241 53.3618C301.3 53.3618 303.085 53.7698 304.596 54.5858C306.108 55.3893 307.267 56.538 308.073 58.0319ZM323.264 53.3618C325.222 53.3618 326.982 53.8451 328.544 54.8118C330.12 55.7785 331.26 57.0904 331.963 58.7475C332.667 60.4046 332.866 62.1936 332.562 64.1143C332.256 66.0477 331.48 67.8554 330.235 69.5377C329.003 71.2199 327.472 72.5381 325.643 73.4922C323.816 74.4338 321.892 74.9045 319.871 74.9045C316.897 74.9045 314.52 73.8626 312.74 71.7786C310.975 69.6821 310.329 67.1399 310.802 64.152C311.309 60.9507 312.92 58.283 315.635 56.1488C318.014 54.2908 320.557 53.3618 323.264 53.3618ZM322.574 58.2014C320.96 58.2014 319.524 58.76 318.266 59.8773C317.024 60.9821 316.265 62.4007 315.991 64.1332C315.709 65.9158 316.007 67.3596 316.887 68.4643C317.78 69.5691 319.04 70.1214 320.667 70.1214C322.294 70.1214 323.736 69.5628 324.993 68.4455C326.251 67.3282 327.019 65.8907 327.297 64.1332C327.575 62.3756 327.267 60.9507 326.372 59.8585C325.492 58.7538 324.226 58.2014 322.574 58.2014ZM338.414 53.8891H343.638L343.265 56.243C344.308 55.2763 345.408 54.5544 346.564 54.0774C347.732 53.6003 348.958 53.3618 350.242 53.3618C351.539 53.3618 352.658 53.6757 353.601 54.3034C354.544 54.9311 355.238 55.8475 355.682 57.0527C356.7 55.8475 357.855 54.9311 359.149 54.3034C360.456 53.6757 361.822 53.3618 363.245 53.3618C364.72 53.3618 365.962 53.7008 366.973 54.3787C367.985 55.0566 368.645 55.9417 368.955 57.0339C369.278 58.1261 369.244 59.9025 368.855 62.363L366.952 74.3773H361.709L363.355 63.9825C363.723 61.66 363.679 60.0908 363.224 59.2748C362.77 58.4462 361.959 58.0319 360.79 58.0319C359.9 58.0319 359.059 58.283 358.268 58.7851C357.489 59.2873 356.858 59.9841 356.373 60.8754C355.891 61.7542 355.495 63.1728 355.185 65.1312L353.72 74.3773H348.477L350.049 64.4533C350.339 62.6204 350.409 61.296 350.259 60.4799C350.123 59.6514 349.814 59.0362 349.331 58.6345C348.848 58.2328 348.219 58.0319 347.443 58.0319C346.579 58.0319 345.75 58.2893 344.957 58.804C344.178 59.3061 343.539 60.0154 343.038 60.9319C342.549 61.8483 342.149 63.292 341.837 65.263L340.393 74.3773H335.169L338.414 53.8891Z" fill="#010101"/>
<path d="M224.134 84.0773H222.868L222.977 83.3873C223.045 82.9537 223.158 82.5797 223.315 82.2653C223.476 81.9476 223.712 81.6233 224.022 81.2923L224.454 81.6746C224.302 81.8533 224.186 82.0072 224.105 82.1362C224.027 82.2653 223.943 82.4374 223.852 82.6525H224.36L224.134 84.0773ZM226.185 84.0773H224.918L225.028 83.3873C225.096 82.9537 225.209 82.5797 225.366 82.2653C225.524 81.9476 225.759 81.6233 226.073 81.2923L226.505 81.6746C226.353 81.8533 226.236 82.0072 226.156 82.1362C226.078 82.2653 225.994 82.4374 225.903 82.6525H226.411L226.185 84.0773ZM227.789 83.3773H229.166L229.067 83.9979C229.342 83.7431 229.632 83.5528 229.937 83.427C230.245 83.3012 230.568 83.2383 230.907 83.2383C231.249 83.2383 231.544 83.3211 231.792 83.4866C232.041 83.652 232.224 83.8936 232.341 84.2114C232.609 83.8936 232.914 83.652 233.255 83.4866C233.6 83.3211 233.959 83.2383 234.335 83.2383C234.723 83.2383 235.051 83.3277 235.318 83.5064C235.584 83.6851 235.758 83.9185 235.84 84.2064C235.925 84.4943 235.916 84.9627 235.814 85.6113L235.312 88.7786H233.93L234.364 86.0383C234.461 85.426 234.449 85.0123 234.329 84.7972C234.21 84.5787 233.996 84.4695 233.687 84.4695C233.453 84.4695 233.231 84.5357 233.023 84.6681C232.817 84.8005 232.651 84.9842 232.523 85.2191C232.396 85.4508 232.292 85.8248 232.21 86.3411L231.824 88.7786H230.441L230.856 86.1624C230.932 85.6792 230.951 85.33 230.911 85.1149C230.875 84.8965 230.794 84.7343 230.667 84.6284C230.539 84.5225 230.373 84.4695 230.169 84.4695C229.941 84.4695 229.723 84.5374 229.513 84.6731C229.308 84.8054 229.14 84.9924 229.007 85.234C228.879 85.4756 228.773 85.8562 228.691 86.3759L228.31 88.7786H226.933L227.789 83.3773ZM241.52 83.3773H242.888L242.032 88.7786H240.665L240.755 88.2077C240.447 88.4593 240.149 88.6413 239.86 88.7538C239.574 88.863 239.274 88.9176 238.959 88.9176C238.252 88.9176 237.683 88.6479 237.253 88.1084C236.823 87.5657 236.671 86.8922 236.799 86.0879C236.931 85.2539 237.289 84.5705 237.872 84.0376C238.456 83.5048 239.105 83.2383 239.818 83.2383C240.147 83.2383 240.445 83.2996 240.714 83.422C240.983 83.5445 241.22 83.7282 241.426 83.9731L241.52 83.3773ZM239.902 84.4894C239.476 84.4894 239.099 84.6383 238.77 84.9362C238.442 85.2307 238.242 85.6097 238.168 86.073C238.094 86.5397 238.176 86.9236 238.413 87.2248C238.653 87.5259 238.983 87.6765 239.402 87.6765C239.834 87.6765 240.216 87.5293 240.548 87.2347C240.88 86.9368 241.084 86.548 241.16 86.0681C241.234 85.5981 241.152 85.2175 240.913 84.9262C240.675 84.635 240.337 84.4894 239.902 84.4894ZM244.615 81.2923H245.987L245.304 85.6064L247.678 83.3773H249.397L246.634 85.9688L248.828 88.7786H247.124L245.196 86.2915L244.802 88.7786H243.429L244.615 81.2923ZM254.287 83.3773H255.654L254.799 88.7786H253.432L253.522 88.2077C253.214 88.4593 252.916 88.6413 252.626 88.7538C252.341 88.863 252.041 88.9176 251.726 88.9176C251.019 88.9176 250.45 88.6479 250.019 88.1084C249.589 87.5657 249.438 86.8922 249.565 86.0879C249.698 85.2539 250.055 84.5705 250.639 84.0376C251.223 83.5048 251.871 83.2383 252.585 83.2383C252.914 83.2383 253.212 83.2996 253.481 83.422C253.75 83.5445 253.987 83.7282 254.193 83.9731L254.287 83.3773ZM252.669 84.4894C252.243 84.4894 251.866 84.6383 251.537 84.9362C251.209 85.2307 251.008 85.6097 250.935 86.073C250.861 86.5397 250.943 86.9236 251.18 87.2248C251.42 87.5259 251.75 87.6765 252.169 87.6765C252.601 87.6765 252.983 87.5293 253.314 87.2347C253.646 86.9368 253.85 86.548 253.926 86.0681C254.001 85.5981 253.919 85.2175 253.68 84.9262C253.441 84.635 253.104 84.4894 252.669 84.4894ZM257.042 83.3773H258.409L258.322 83.9284C258.674 83.6702 258.984 83.4915 259.251 83.3922C259.522 83.2896 259.79 83.2383 260.054 83.2383C260.597 83.2383 261.028 83.4253 261.348 83.7993C261.616 84.117 261.7 84.587 261.602 85.2092L261.037 88.7786H259.679L260.054 86.4106C260.157 85.7652 260.194 85.3366 260.168 85.1248C260.144 84.913 260.067 84.7525 259.937 84.6433C259.811 84.5307 259.641 84.4745 259.426 84.4745C259.148 84.4745 258.894 84.5672 258.663 84.7525C258.437 84.9345 258.259 85.1877 258.131 85.512C258.064 85.6808 257.986 86.0466 257.897 86.6092L257.553 88.7786H256.186L257.042 83.3773ZM269.337 84.1319L268.355 84.9709C268.063 84.6333 267.776 84.4646 267.495 84.4646C267.341 84.4646 267.215 84.4977 267.117 84.5638C267.02 84.6267 266.964 84.7062 266.949 84.8021C266.937 84.8749 266.954 84.9428 266.997 85.0057C267.045 85.0653 267.169 85.148 267.37 85.2539L267.833 85.5021C268.322 85.7603 268.644 86.0234 268.799 86.2915C268.954 86.5595 269.003 86.874 268.946 87.2347C268.87 87.7146 268.627 88.1151 268.218 88.4361C267.812 88.7571 267.309 88.9176 266.709 88.9176C265.912 88.9176 265.324 88.6098 264.946 87.9943L265.934 87.0858C266.065 87.2711 266.229 87.4217 266.425 87.5375C266.625 87.6501 266.809 87.7063 266.977 87.7063C267.157 87.7063 267.31 87.6633 267.434 87.5772C267.558 87.4912 267.63 87.3919 267.647 87.2794C267.68 87.0709 267.513 86.8673 267.146 86.6688L266.72 86.4404C265.905 86.0002 265.55 85.4492 265.655 84.7872C265.722 84.3603 265.946 83.9962 266.325 83.6951C266.708 83.3906 267.16 83.2383 267.679 83.2383C268.034 83.2383 268.355 83.3161 268.642 83.4717C268.933 83.6239 269.165 83.844 269.337 84.1319ZM275.632 86.4702H271.224C271.226 86.8541 271.347 87.1602 271.586 87.3886C271.828 87.6137 272.164 87.7262 272.593 87.7262C273.105 87.7262 273.574 87.5491 273.999 87.195L275.07 87.7311C274.718 88.1349 274.325 88.4344 273.892 88.6297C273.46 88.8217 272.967 88.9176 272.414 88.9176C271.556 88.9176 270.9 88.6512 270.445 88.1184C269.99 87.5822 269.827 86.912 269.954 86.1078C270.085 85.2837 270.461 84.6003 271.083 84.0575C271.709 83.5114 272.427 83.2383 273.238 83.2383C274.099 83.2383 274.757 83.5114 275.21 84.0575C275.663 84.6003 275.819 85.3184 275.678 86.212L275.632 86.4702ZM274.423 85.4028C274.381 85.1017 274.24 84.8567 274.002 84.6681C273.767 84.4794 273.474 84.3851 273.122 84.3851C272.74 84.3851 272.388 84.491 272.066 84.7028C271.864 84.8352 271.66 85.0686 271.453 85.4028H274.423ZM281.609 81.2923H282.976L281.79 88.7786H280.423L280.513 88.2077C280.205 88.4593 279.907 88.6413 279.618 88.7538C279.332 88.863 279.032 88.9176 278.717 88.9176C278.01 88.9176 277.441 88.6479 277.011 88.1084C276.581 87.5657 276.429 86.8922 276.557 86.0879C276.689 85.2539 277.047 84.5705 277.63 84.0376C278.214 83.5048 278.863 83.2383 279.576 83.2383C279.905 83.2383 280.203 83.2996 280.472 83.422C280.741 83.5445 280.978 83.7282 281.184 83.9731L281.609 81.2923ZM279.66 84.4894C279.234 84.4894 278.857 84.6383 278.528 84.9362C278.2 85.2307 278 85.6097 277.926 86.073C277.852 86.5397 277.934 86.9236 278.171 87.2248C278.411 87.5259 278.741 87.6765 279.16 87.6765C279.592 87.6765 279.974 87.5293 280.306 87.2347C280.638 86.9368 280.842 86.548 280.918 86.0681C280.992 85.5981 280.91 85.2175 280.671 84.9262C280.433 84.635 280.095 84.4894 279.66 84.4894ZM288.074 83.3773H289.441L288.586 88.7786H287.219L287.309 88.2077C287.001 88.4593 286.702 88.6413 286.413 88.7538C286.128 88.863 285.828 88.9176 285.513 88.9176C284.806 88.9176 284.237 88.6479 283.806 88.1084C283.376 87.5657 283.225 86.8922 283.352 86.0879C283.484 85.2539 283.842 84.5705 284.426 84.0376C285.01 83.5048 285.658 83.2383 286.372 83.2383C286.7 83.2383 286.999 83.2996 287.268 83.422C287.537 83.5445 287.774 83.7282 287.98 83.9731L288.074 83.3773ZM286.455 84.4894C286.03 84.4894 285.653 84.6383 285.324 84.9362C284.996 85.2307 284.795 85.6097 284.722 86.073C284.648 86.5397 284.729 86.9236 284.967 87.2248C285.207 87.5259 285.537 87.6765 285.956 87.6765C286.388 87.6765 286.77 87.5293 287.101 87.2347C287.433 86.9368 287.637 86.548 287.713 86.0681C287.788 85.5981 287.705 85.2175 287.467 84.9262C287.228 84.635 286.891 84.4894 286.455 84.4894ZM292.191 83.3773L292.096 83.9731C292.383 83.7282 292.68 83.5445 292.988 83.422C293.295 83.2996 293.613 83.2383 293.942 83.2383C294.655 83.2383 295.22 83.5048 295.635 84.0376C296.049 84.5705 296.191 85.2539 296.059 86.0879C295.931 86.8922 295.567 87.5657 294.965 88.1084C294.363 88.6479 293.709 88.9176 293.002 88.9176C292.687 88.9176 292.402 88.863 292.148 88.7538C291.895 88.6413 291.654 88.4593 291.425 88.2077L291.022 90.7545H289.66L290.828 83.3773H292.191ZM293.457 84.4894C293.025 84.4894 292.643 84.635 292.312 84.9262C291.981 85.2175 291.778 85.5981 291.704 86.0681C291.628 86.548 291.709 86.9368 291.947 87.2347C292.185 87.5293 292.52 87.6765 292.952 87.6765C293.371 87.6765 293.747 87.5259 294.079 87.2248C294.415 86.9236 294.62 86.5397 294.694 86.073C294.767 85.6097 294.687 85.2307 294.452 84.9362C294.217 84.6383 293.886 84.4894 293.457 84.4894ZM297.645 87.4035L298.548 87.89L296.974 89.985L296.342 89.6623L297.645 87.4035ZM303.729 81.2923H305.092L304.675 83.9234C304.979 83.6951 305.276 83.5246 305.565 83.4121C305.855 83.2963 306.139 83.2383 306.417 83.2383C306.96 83.2383 307.388 83.4237 307.701 83.7944C307.968 84.1154 308.053 84.587 307.954 85.2092L307.389 88.7786H306.037L306.412 86.4106C306.511 85.7851 306.548 85.3615 306.523 85.1397C306.498 84.918 306.42 84.7525 306.29 84.6433C306.163 84.5341 305.992 84.4794 305.778 84.4794C305.5 84.4794 305.246 84.5705 305.016 84.7525C304.789 84.9345 304.613 85.1827 304.486 85.4972C304.42 85.6593 304.341 86.03 304.249 86.6092L303.906 88.7786H302.544L303.729 81.2923ZM313.618 83.3773H314.985L314.129 88.7786H312.762L312.853 88.2077C312.545 88.4593 312.246 88.6413 311.957 88.7538C311.671 88.863 311.371 88.9176 311.056 88.9176C310.349 88.9176 309.78 88.6479 309.35 88.1084C308.92 87.5657 308.768 86.8922 308.896 86.0879C309.028 85.2539 309.386 84.5705 309.97 84.0376C310.553 83.5048 311.202 83.2383 311.916 83.2383C312.244 83.2383 312.543 83.2996 312.811 83.422C313.08 83.5445 313.317 83.7282 313.523 83.9731L313.618 83.3773ZM311.999 84.4894C311.573 84.4894 311.196 84.6383 310.868 84.9362C310.54 85.2307 310.339 85.6097 310.265 86.073C310.191 86.5397 310.273 86.9236 310.51 87.2248C310.751 87.5259 311.08 87.6765 311.499 87.6765C311.931 87.6765 312.313 87.5293 312.645 87.2347C312.977 86.9368 313.181 86.548 313.257 86.0681C313.331 85.5981 313.249 85.2175 313.01 84.9262C312.772 84.635 312.435 84.4894 311.999 84.4894ZM316.853 81.3866H318.22L317.905 83.3773H318.719L318.535 84.544H317.72L317.05 88.7786H315.682L316.353 84.544H315.649L315.834 83.3773H316.538L316.853 81.3866ZM320.348 81.1533C320.59 81.1533 320.782 81.2393 320.926 81.4114C321.073 81.5835 321.127 81.792 321.088 82.037C321.05 82.2786 320.931 82.4854 320.733 82.6575C320.536 82.8263 320.318 82.9107 320.08 82.9107C319.835 82.9107 319.64 82.8246 319.493 82.6525C319.349 82.4771 319.298 82.2653 319.337 82.0171C319.375 81.7788 319.492 81.5753 319.69 81.4065C319.888 81.2377 320.107 81.1533 320.348 81.1533ZM319.307 83.3773H320.685L319.829 88.7786H318.452L319.307 83.3773ZM328.044 84.1319L327.062 84.9709C326.77 84.6333 326.484 84.4646 326.202 84.4646C326.048 84.4646 325.922 84.4977 325.825 84.5638C325.727 84.6267 325.671 84.7062 325.656 84.8021C325.645 84.8749 325.661 84.9428 325.704 85.0057C325.752 85.0653 325.876 85.148 326.077 85.2539L326.54 85.5021C327.029 85.7603 327.351 86.0234 327.506 86.2915C327.661 86.5595 327.71 86.874 327.653 87.2347C327.577 87.7146 327.335 88.1151 326.925 88.4361C326.519 88.7571 326.016 88.9176 325.416 88.9176C324.619 88.9176 324.031 88.6098 323.653 87.9943L324.641 87.0858C324.773 87.2711 324.936 87.4217 325.132 87.5375C325.332 87.6501 325.516 87.7063 325.684 87.7063C325.865 87.7063 326.017 87.6633 326.141 87.5772C326.266 87.4912 326.337 87.3919 326.354 87.2794C326.388 87.0709 326.22 86.8673 325.853 86.6688L325.427 86.4404C324.612 86.0002 324.257 85.4492 324.362 84.7872C324.429 84.3603 324.653 83.9962 325.032 83.6951C325.416 83.3906 325.867 83.2383 326.386 83.2383C326.742 83.2383 327.063 83.3161 327.35 83.4717C327.64 83.6239 327.872 83.844 328.044 84.1319ZM334.339 86.4702H329.931C329.934 86.8541 330.054 87.1602 330.293 87.3886C330.535 87.6137 330.871 87.7262 331.3 87.7262C331.813 87.7262 332.281 87.5491 332.706 87.195L333.777 87.7311C333.425 88.1349 333.032 88.4344 332.599 88.6297C332.167 88.8217 331.674 88.9176 331.121 88.9176C330.264 88.9176 329.607 88.6512 329.152 88.1184C328.697 87.5822 328.534 86.912 328.661 86.1078C328.792 85.2837 329.168 84.6003 329.79 84.0575C330.416 83.5114 331.135 83.2383 331.945 83.2383C332.807 83.2383 333.464 83.5114 333.917 84.0575C334.37 84.6003 334.526 85.3184 334.385 86.212L334.339 86.4702ZM333.131 85.4028C333.088 85.1017 332.947 84.8567 332.709 84.6681C332.474 84.4794 332.181 84.3851 331.829 84.3851C331.447 84.3851 331.095 84.491 330.774 84.7028C330.572 84.8352 330.367 85.0686 330.16 85.4028H333.131ZM335.944 83.3773H337.312L337.224 83.9284C337.577 83.6702 337.887 83.4915 338.154 83.3922C338.425 83.2896 338.692 83.2383 338.957 83.2383C339.5 83.2383 339.931 83.4253 340.251 83.7993C340.519 84.117 340.603 84.587 340.505 85.2092L339.939 88.7786H338.582L338.957 86.4106C339.06 85.7652 339.097 85.3366 339.07 85.1248C339.047 84.913 338.97 84.7525 338.84 84.6433C338.714 84.5307 338.544 84.4745 338.329 84.4745C338.051 84.4745 337.797 84.5672 337.566 84.7525C337.34 84.9345 337.162 85.1877 337.034 85.512C336.967 85.6808 336.889 86.0466 336.8 86.6092L336.456 88.7786H335.089L335.944 83.3773ZM346.168 83.3773H347.535L346.68 88.7786H345.312L345.403 88.2077C345.095 88.4593 344.796 88.6413 344.507 88.7538C344.222 88.863 343.922 88.9176 343.607 88.9176C342.9 88.9176 342.331 88.6479 341.9 88.1084C341.47 87.5657 341.319 86.8922 341.446 86.0879C341.578 85.2539 341.936 84.5705 342.52 84.0376C343.104 83.5048 343.752 83.2383 344.466 83.2383C344.794 83.2383 345.093 83.2996 345.362 83.422C345.63 83.5445 345.868 83.7282 346.074 83.9731L346.168 83.3773ZM344.549 84.4894C344.124 84.4894 343.747 84.6383 343.418 84.9362C343.09 85.2307 342.889 85.6097 342.816 86.073C342.742 86.5397 342.823 86.9236 343.061 87.2248C343.301 87.5259 343.631 87.6765 344.05 87.6765C344.482 87.6765 344.864 87.5293 345.195 87.2347C345.527 86.9368 345.731 86.548 345.807 86.0681C345.882 85.5981 345.799 85.2175 345.561 84.9262C345.322 84.635 344.985 84.4894 344.549 84.4894ZM348.922 83.3773H350.29L350.202 83.9284C350.555 83.6702 350.865 83.4915 351.132 83.3922C351.402 83.2896 351.67 83.2383 351.935 83.2383C352.478 83.2383 352.909 83.4253 353.228 83.7993C353.496 84.117 353.581 84.587 353.483 85.2092L352.917 88.7786H351.56L351.935 86.4106C352.037 85.7652 352.075 85.3366 352.048 85.1248C352.025 84.913 351.948 84.7525 351.818 84.6433C351.692 84.5307 351.521 84.4745 351.307 84.4745C351.029 84.4745 350.775 84.5672 350.544 84.7525C350.318 84.9345 350.14 85.1877 350.012 85.512C349.945 85.6808 349.867 86.0466 349.778 86.6092L349.434 88.7786H348.067L348.922 83.3773ZM359.146 83.3773H360.513L359.78 88.0042C359.636 88.9176 359.343 89.5895 358.903 90.0197C358.312 90.6022 357.513 90.8935 356.508 90.8935C355.972 90.8935 355.531 90.8273 355.187 90.6949C354.843 90.5625 354.566 90.3672 354.355 90.1091C354.144 89.8543 354.008 89.5432 353.945 89.1758H355.458C355.568 89.328 355.722 89.4422 355.921 89.5183C356.12 89.5978 356.363 89.6375 356.651 89.6375C357.02 89.6375 357.326 89.5812 357.568 89.4687C357.81 89.3562 357.991 89.2105 358.11 89.0318C358.232 88.8531 358.327 88.5453 358.397 88.1084C358.118 88.3467 357.837 88.5188 357.556 88.6247C357.275 88.7273 356.967 88.7786 356.632 88.7786C355.898 88.7786 355.319 88.5172 354.896 87.9943C354.473 87.4713 354.325 86.8094 354.452 86.0085C354.588 85.1513 354.965 84.4629 355.583 83.9433C356.143 83.4733 356.76 83.2383 357.434 83.2383C357.749 83.2383 358.036 83.2963 358.296 83.4121C358.56 83.5246 358.811 83.7116 359.052 83.9731L359.146 83.3773ZM357.545 84.5043C357.113 84.5043 356.733 84.6482 356.406 84.9362C356.079 85.2208 355.882 85.5799 355.813 86.0135C355.742 86.4636 355.827 86.8326 356.07 87.1205C356.313 87.4085 356.652 87.5524 357.087 87.5524C357.513 87.5524 357.885 87.4118 358.205 87.1304C358.527 86.8491 358.725 86.4801 358.797 86.0234C358.868 85.5733 358.787 85.2076 358.554 84.9262C358.32 84.6449 357.984 84.5043 357.545 84.5043ZM364.392 81.2923H365.658L365.55 81.9774C365.481 82.4143 365.366 82.7899 365.206 83.1043C365.049 83.4187 364.813 83.7431 364.499 84.0773L364.072 83.6951C364.224 83.5164 364.339 83.3625 364.416 83.2334C364.497 83.101 364.582 82.9272 364.67 82.7121H364.167L364.392 81.2923ZM362.341 81.2923H363.608L363.499 81.9774C363.43 82.4143 363.315 82.7899 363.155 83.1043C362.998 83.4187 362.764 83.7431 362.453 84.0773L362.021 83.6951C362.173 83.5164 362.288 83.3625 362.365 83.2334C362.447 83.101 362.533 82.9272 362.624 82.7121H362.116L362.341 81.2923Z" fill="#010101"/>
</svg>
